%TF.GenerationSoftware,KiCad,Pcbnew,(5.1.12)-1*%
%TF.CreationDate,2022-05-16T22:14:10+01:00*%
%TF.ProjectId,wiicam,77696963-616d-42e6-9b69-6361645f7063,rev?*%
%TF.SameCoordinates,Original*%
%TF.FileFunction,Soldermask,Top*%
%TF.FilePolarity,Negative*%
%FSLAX46Y46*%
G04 Gerber Fmt 4.6, Leading zero omitted, Abs format (unit mm)*
G04 Created by KiCad (PCBNEW (5.1.12)-1) date 2022-05-16 22:14:10*
%MOMM*%
%LPD*%
G01*
G04 APERTURE LIST*
%ADD10O,2.102000X0.662000*%
%ADD11O,2.102000X0.702000*%
%ADD12O,1.802000X1.802000*%
%ADD13C,0.100000*%
G04 APERTURE END LIST*
G36*
G01*
X161306000Y-120755248D02*
X161306000Y-121714752D01*
G75*
G02*
X161034752Y-121986000I-271248J0D01*
G01*
X160275248Y-121986000D01*
G75*
G02*
X160004000Y-121714752I0J271248D01*
G01*
X160004000Y-120755248D01*
G75*
G02*
X160275248Y-120484000I271248J0D01*
G01*
X161034752Y-120484000D01*
G75*
G02*
X161306000Y-120755248I0J-271248D01*
G01*
G37*
G36*
G01*
X159306000Y-120755248D02*
X159306000Y-121714752D01*
G75*
G02*
X159034752Y-121986000I-271248J0D01*
G01*
X158275248Y-121986000D01*
G75*
G02*
X158004000Y-121714752I0J271248D01*
G01*
X158004000Y-120755248D01*
G75*
G02*
X158275248Y-120484000I271248J0D01*
G01*
X159034752Y-120484000D01*
G75*
G02*
X159306000Y-120755248I0J-271248D01*
G01*
G37*
D10*
X164465000Y-121260000D03*
D11*
X164465000Y-122160000D03*
X164465000Y-123060000D03*
X164465000Y-123960000D03*
X164465000Y-124860000D03*
X164465000Y-125760000D03*
X164465000Y-126660000D03*
X164465000Y-127560000D03*
G36*
G01*
X149355500Y-120095702D02*
X149355500Y-121104298D01*
G75*
G02*
X149083798Y-121376000I-271702J0D01*
G01*
X148350202Y-121376000D01*
G75*
G02*
X148078500Y-121104298I0J271702D01*
G01*
X148078500Y-120095702D01*
G75*
G02*
X148350202Y-119824000I271702J0D01*
G01*
X149083798Y-119824000D01*
G75*
G02*
X149355500Y-120095702I0J-271702D01*
G01*
G37*
G36*
G01*
X147280500Y-120095702D02*
X147280500Y-121104298D01*
G75*
G02*
X147008798Y-121376000I-271702J0D01*
G01*
X146275202Y-121376000D01*
G75*
G02*
X146003500Y-121104298I0J271702D01*
G01*
X146003500Y-120095702D01*
G75*
G02*
X146275202Y-119824000I271702J0D01*
G01*
X147008798Y-119824000D01*
G75*
G02*
X147280500Y-120095702I0J-271702D01*
G01*
G37*
G36*
G01*
X145796000Y-126159752D02*
X145796000Y-125200248D01*
G75*
G02*
X146067248Y-124929000I271248J0D01*
G01*
X146826752Y-124929000D01*
G75*
G02*
X147098000Y-125200248I0J-271248D01*
G01*
X147098000Y-126159752D01*
G75*
G02*
X146826752Y-126431000I-271248J0D01*
G01*
X146067248Y-126431000D01*
G75*
G02*
X145796000Y-126159752I0J271248D01*
G01*
G37*
G36*
G01*
X147796000Y-126159752D02*
X147796000Y-125200248D01*
G75*
G02*
X148067248Y-124929000I271248J0D01*
G01*
X148826752Y-124929000D01*
G75*
G02*
X149098000Y-125200248I0J-271248D01*
G01*
X149098000Y-126159752D01*
G75*
G02*
X148826752Y-126431000I-271248J0D01*
G01*
X148067248Y-126431000D01*
G75*
G02*
X147796000Y-126159752I0J271248D01*
G01*
G37*
D12*
X142875000Y-120600000D03*
X142875000Y-123140000D03*
X142875000Y-125680000D03*
G36*
G01*
X143776000Y-127370000D02*
X143776000Y-129070000D01*
G75*
G02*
X143725000Y-129121000I-51000J0D01*
G01*
X142025000Y-129121000D01*
G75*
G02*
X141974000Y-129070000I0J51000D01*
G01*
X141974000Y-127370000D01*
G75*
G02*
X142025000Y-127319000I51000J0D01*
G01*
X143725000Y-127319000D01*
G75*
G02*
X143776000Y-127370000I0J-51000D01*
G01*
G37*
G36*
G01*
X147796000Y-128699752D02*
X147796000Y-127740248D01*
G75*
G02*
X148067248Y-127469000I271248J0D01*
G01*
X148826752Y-127469000D01*
G75*
G02*
X149098000Y-127740248I0J-271248D01*
G01*
X149098000Y-128699752D01*
G75*
G02*
X148826752Y-128971000I-271248J0D01*
G01*
X148067248Y-128971000D01*
G75*
G02*
X147796000Y-128699752I0J271248D01*
G01*
G37*
G36*
G01*
X145796000Y-128699752D02*
X145796000Y-127740248D01*
G75*
G02*
X146067248Y-127469000I271248J0D01*
G01*
X146826752Y-127469000D01*
G75*
G02*
X147098000Y-127740248I0J-271248D01*
G01*
X147098000Y-128699752D01*
G75*
G02*
X146826752Y-128971000I-271248J0D01*
G01*
X146067248Y-128971000D01*
G75*
G02*
X145796000Y-128699752I0J271248D01*
G01*
G37*
G36*
G01*
X154712000Y-119574000D02*
X156212000Y-119574000D01*
G75*
G02*
X156263000Y-119625000I0J-51000D01*
G01*
X156263000Y-121625000D01*
G75*
G02*
X156212000Y-121676000I-51000J0D01*
G01*
X154712000Y-121676000D01*
G75*
G02*
X154661000Y-121625000I0J51000D01*
G01*
X154661000Y-119625000D01*
G75*
G02*
X154712000Y-119574000I51000J0D01*
G01*
G37*
G36*
G01*
X150112000Y-119574000D02*
X151612000Y-119574000D01*
G75*
G02*
X151663000Y-119625000I0J-51000D01*
G01*
X151663000Y-121625000D01*
G75*
G02*
X151612000Y-121676000I-51000J0D01*
G01*
X150112000Y-121676000D01*
G75*
G02*
X150061000Y-121625000I0J51000D01*
G01*
X150061000Y-119625000D01*
G75*
G02*
X150112000Y-119574000I51000J0D01*
G01*
G37*
G36*
G01*
X152412000Y-119574000D02*
X153912000Y-119574000D01*
G75*
G02*
X153963000Y-119625000I0J-51000D01*
G01*
X153963000Y-121625000D01*
G75*
G02*
X153912000Y-121676000I-51000J0D01*
G01*
X152412000Y-121676000D01*
G75*
G02*
X152361000Y-121625000I0J51000D01*
G01*
X152361000Y-119625000D01*
G75*
G02*
X152412000Y-119574000I51000J0D01*
G01*
G37*
G36*
G01*
X151262000Y-125874000D02*
X155062000Y-125874000D01*
G75*
G02*
X155113000Y-125925000I0J-51000D01*
G01*
X155113000Y-127925000D01*
G75*
G02*
X155062000Y-127976000I-51000J0D01*
G01*
X151262000Y-127976000D01*
G75*
G02*
X151211000Y-127925000I0J51000D01*
G01*
X151211000Y-125925000D01*
G75*
G02*
X151262000Y-125874000I51000J0D01*
G01*
G37*
D13*
G36*
X165272826Y-126991274D02*
G01*
X165273407Y-126993188D01*
X165272224Y-126994582D01*
X165255443Y-127001534D01*
X165235395Y-127014928D01*
X165218348Y-127031975D01*
X165204954Y-127052023D01*
X165195727Y-127074297D01*
X165191023Y-127097947D01*
X165191023Y-127122053D01*
X165195727Y-127145703D01*
X165204954Y-127167977D01*
X165218348Y-127188025D01*
X165235395Y-127205072D01*
X165255443Y-127218466D01*
X165272224Y-127225418D01*
X165273442Y-127227005D01*
X165272676Y-127228853D01*
X165270878Y-127229180D01*
X165233082Y-127217714D01*
X165164906Y-127211000D01*
X163765094Y-127211000D01*
X163696918Y-127217714D01*
X163659122Y-127229180D01*
X163657174Y-127228726D01*
X163656593Y-127226812D01*
X163657776Y-127225418D01*
X163674557Y-127218466D01*
X163694605Y-127205072D01*
X163711652Y-127188025D01*
X163725046Y-127167977D01*
X163734273Y-127145703D01*
X163738977Y-127122053D01*
X163738977Y-127097947D01*
X163734273Y-127074297D01*
X163725046Y-127052023D01*
X163711652Y-127031975D01*
X163694605Y-127014928D01*
X163674557Y-127001534D01*
X163657776Y-126994582D01*
X163656558Y-126992995D01*
X163657324Y-126991147D01*
X163659122Y-126990820D01*
X163696918Y-127002286D01*
X163765094Y-127009000D01*
X165164906Y-127009000D01*
X165233082Y-127002286D01*
X165270878Y-126990820D01*
X165272826Y-126991274D01*
G37*
G36*
X165272826Y-126091274D02*
G01*
X165273407Y-126093188D01*
X165272224Y-126094582D01*
X165255443Y-126101534D01*
X165235395Y-126114928D01*
X165218348Y-126131975D01*
X165204954Y-126152023D01*
X165195727Y-126174297D01*
X165191023Y-126197947D01*
X165191023Y-126222053D01*
X165195727Y-126245703D01*
X165204954Y-126267977D01*
X165218348Y-126288025D01*
X165235395Y-126305072D01*
X165255443Y-126318466D01*
X165272224Y-126325418D01*
X165273442Y-126327005D01*
X165272676Y-126328853D01*
X165270878Y-126329180D01*
X165233082Y-126317714D01*
X165164906Y-126311000D01*
X163765094Y-126311000D01*
X163696918Y-126317714D01*
X163659122Y-126329180D01*
X163657174Y-126328726D01*
X163656593Y-126326812D01*
X163657776Y-126325418D01*
X163674557Y-126318466D01*
X163694605Y-126305072D01*
X163711652Y-126288025D01*
X163725046Y-126267977D01*
X163734273Y-126245703D01*
X163738977Y-126222053D01*
X163738977Y-126197947D01*
X163734273Y-126174297D01*
X163725046Y-126152023D01*
X163711652Y-126131975D01*
X163694605Y-126114928D01*
X163674557Y-126101534D01*
X163657776Y-126094582D01*
X163656558Y-126092995D01*
X163657324Y-126091147D01*
X163659122Y-126090820D01*
X163696918Y-126102286D01*
X163765094Y-126109000D01*
X165164906Y-126109000D01*
X165233082Y-126102286D01*
X165270878Y-126090820D01*
X165272826Y-126091274D01*
G37*
G36*
X165272826Y-125191274D02*
G01*
X165273407Y-125193188D01*
X165272224Y-125194582D01*
X165255443Y-125201534D01*
X165235395Y-125214928D01*
X165218348Y-125231975D01*
X165204954Y-125252023D01*
X165195727Y-125274297D01*
X165191023Y-125297947D01*
X165191023Y-125322053D01*
X165195727Y-125345703D01*
X165204954Y-125367977D01*
X165218348Y-125388025D01*
X165235395Y-125405072D01*
X165255443Y-125418466D01*
X165272224Y-125425418D01*
X165273442Y-125427005D01*
X165272676Y-125428853D01*
X165270878Y-125429180D01*
X165233082Y-125417714D01*
X165164906Y-125411000D01*
X163765094Y-125411000D01*
X163696918Y-125417714D01*
X163659122Y-125429180D01*
X163657174Y-125428726D01*
X163656593Y-125426812D01*
X163657776Y-125425418D01*
X163674557Y-125418466D01*
X163694605Y-125405072D01*
X163711652Y-125388025D01*
X163725046Y-125367977D01*
X163734273Y-125345703D01*
X163738977Y-125322053D01*
X163738977Y-125297947D01*
X163734273Y-125274297D01*
X163725046Y-125252023D01*
X163711652Y-125231975D01*
X163694605Y-125214928D01*
X163674557Y-125201534D01*
X163657776Y-125194582D01*
X163656558Y-125192995D01*
X163657324Y-125191147D01*
X163659122Y-125190820D01*
X163696918Y-125202286D01*
X163765094Y-125209000D01*
X165164906Y-125209000D01*
X165233082Y-125202286D01*
X165270878Y-125190820D01*
X165272826Y-125191274D01*
G37*
G36*
X165272826Y-124291274D02*
G01*
X165273407Y-124293188D01*
X165272224Y-124294582D01*
X165255443Y-124301534D01*
X165235395Y-124314928D01*
X165218348Y-124331975D01*
X165204954Y-124352023D01*
X165195727Y-124374297D01*
X165191023Y-124397947D01*
X165191023Y-124422053D01*
X165195727Y-124445703D01*
X165204954Y-124467977D01*
X165218348Y-124488025D01*
X165235395Y-124505072D01*
X165255443Y-124518466D01*
X165272224Y-124525418D01*
X165273442Y-124527005D01*
X165272676Y-124528853D01*
X165270878Y-124529180D01*
X165233082Y-124517714D01*
X165164906Y-124511000D01*
X163765094Y-124511000D01*
X163696918Y-124517714D01*
X163659122Y-124529180D01*
X163657174Y-124528726D01*
X163656593Y-124526812D01*
X163657776Y-124525418D01*
X163674557Y-124518466D01*
X163694605Y-124505072D01*
X163711652Y-124488025D01*
X163725046Y-124467977D01*
X163734273Y-124445703D01*
X163738977Y-124422053D01*
X163738977Y-124397947D01*
X163734273Y-124374297D01*
X163725046Y-124352023D01*
X163711652Y-124331975D01*
X163694605Y-124314928D01*
X163674557Y-124301534D01*
X163657776Y-124294582D01*
X163656558Y-124292995D01*
X163657324Y-124291147D01*
X163659122Y-124290820D01*
X163696918Y-124302286D01*
X163765094Y-124309000D01*
X165164906Y-124309000D01*
X165233082Y-124302286D01*
X165270878Y-124290820D01*
X165272826Y-124291274D01*
G37*
G36*
X165272826Y-123391274D02*
G01*
X165273407Y-123393188D01*
X165272224Y-123394582D01*
X165255443Y-123401534D01*
X165235395Y-123414928D01*
X165218348Y-123431975D01*
X165204954Y-123452023D01*
X165195727Y-123474297D01*
X165191023Y-123497947D01*
X165191023Y-123522053D01*
X165195727Y-123545703D01*
X165204954Y-123567977D01*
X165218348Y-123588025D01*
X165235395Y-123605072D01*
X165255443Y-123618466D01*
X165272224Y-123625418D01*
X165273442Y-123627005D01*
X165272676Y-123628853D01*
X165270878Y-123629180D01*
X165233082Y-123617714D01*
X165164906Y-123611000D01*
X163765094Y-123611000D01*
X163696918Y-123617714D01*
X163659122Y-123629180D01*
X163657174Y-123628726D01*
X163656593Y-123626812D01*
X163657776Y-123625418D01*
X163674557Y-123618466D01*
X163694605Y-123605072D01*
X163711652Y-123588025D01*
X163725046Y-123567977D01*
X163734273Y-123545703D01*
X163738977Y-123522053D01*
X163738977Y-123497947D01*
X163734273Y-123474297D01*
X163725046Y-123452023D01*
X163711652Y-123431975D01*
X163694605Y-123414928D01*
X163674557Y-123401534D01*
X163657776Y-123394582D01*
X163656558Y-123392995D01*
X163657324Y-123391147D01*
X163659122Y-123390820D01*
X163696918Y-123402286D01*
X163765094Y-123409000D01*
X165164906Y-123409000D01*
X165233082Y-123402286D01*
X165270878Y-123390820D01*
X165272826Y-123391274D01*
G37*
G36*
X165272826Y-122491274D02*
G01*
X165273407Y-122493188D01*
X165272224Y-122494582D01*
X165255443Y-122501534D01*
X165235395Y-122514928D01*
X165218348Y-122531975D01*
X165204954Y-122552023D01*
X165195727Y-122574297D01*
X165191023Y-122597947D01*
X165191023Y-122622053D01*
X165195727Y-122645703D01*
X165204954Y-122667977D01*
X165218348Y-122688025D01*
X165235395Y-122705072D01*
X165255443Y-122718466D01*
X165272224Y-122725418D01*
X165273442Y-122727005D01*
X165272676Y-122728853D01*
X165270878Y-122729180D01*
X165233082Y-122717714D01*
X165164906Y-122711000D01*
X163765094Y-122711000D01*
X163696918Y-122717714D01*
X163659122Y-122729180D01*
X163657174Y-122728726D01*
X163656593Y-122726812D01*
X163657776Y-122725418D01*
X163674557Y-122718466D01*
X163694605Y-122705072D01*
X163711652Y-122688025D01*
X163725046Y-122667977D01*
X163734273Y-122645703D01*
X163738977Y-122622053D01*
X163738977Y-122597947D01*
X163734273Y-122574297D01*
X163725046Y-122552023D01*
X163711652Y-122531975D01*
X163694605Y-122514928D01*
X163674557Y-122501534D01*
X163657776Y-122494582D01*
X163656558Y-122492995D01*
X163657324Y-122491147D01*
X163659122Y-122490820D01*
X163696918Y-122502286D01*
X163765094Y-122509000D01*
X165164906Y-122509000D01*
X165233082Y-122502286D01*
X165270878Y-122490820D01*
X165272826Y-122491274D01*
G37*
G36*
X165250360Y-121583558D02*
G01*
X165250556Y-121585548D01*
X165249499Y-121586571D01*
X165231158Y-121594168D01*
X165211111Y-121607563D01*
X165194064Y-121624610D01*
X165180669Y-121644657D01*
X165171443Y-121666931D01*
X165166739Y-121690582D01*
X165166739Y-121714688D01*
X165171444Y-121738338D01*
X165180670Y-121760612D01*
X165194065Y-121780659D01*
X165211112Y-121797706D01*
X165231159Y-121811101D01*
X165247936Y-121818050D01*
X165249154Y-121819637D01*
X165248389Y-121821485D01*
X165246590Y-121821812D01*
X165233082Y-121817714D01*
X165164906Y-121811000D01*
X163765094Y-121811000D01*
X163696918Y-121817714D01*
X163683409Y-121821812D01*
X163681461Y-121821358D01*
X163680880Y-121819444D01*
X163682063Y-121818050D01*
X163698840Y-121811101D01*
X163718888Y-121797706D01*
X163735935Y-121780659D01*
X163749330Y-121760612D01*
X163758556Y-121738338D01*
X163763261Y-121714688D01*
X163763261Y-121690582D01*
X163758557Y-121666932D01*
X163749331Y-121644658D01*
X163735936Y-121624610D01*
X163718889Y-121607563D01*
X163698842Y-121594168D01*
X163680501Y-121586571D01*
X163679283Y-121584984D01*
X163680048Y-121583136D01*
X163681462Y-121582733D01*
X163745094Y-121589000D01*
X165184906Y-121589000D01*
X165248538Y-121582733D01*
X165250360Y-121583558D01*
G37*
M02*
