%TF.GenerationSoftware,KiCad,Pcbnew,(5.1.12)-1*%
%TF.CreationDate,2022-05-16T22:14:10+01:00*%
%TF.ProjectId,wiicam,77696963-616d-42e6-9b69-6361645f7063,rev?*%
%TF.SameCoordinates,Original*%
%TF.FileFunction,Legend,Top*%
%TF.FilePolarity,Positive*%
%FSLAX46Y46*%
G04 Gerber Fmt 4.6, Leading zero omitted, Abs format (unit mm)*
G04 Created by KiCad (PCBNEW (5.1.12)-1) date 2022-05-16 22:14:10*
%MOMM*%
%LPD*%
G01*
G04 APERTURE LIST*
%ADD10C,0.150000*%
%ADD11C,0.125000*%
%ADD12C,0.120000*%
%ADD13O,2.102000X0.662000*%
%ADD14O,2.102000X0.702000*%
%ADD15O,1.802000X1.802000*%
G04 APERTURE END LIST*
D10*
X155785714Y-126580357D02*
X155750000Y-126616071D01*
X155642857Y-126651785D01*
X155571428Y-126651785D01*
X155464285Y-126616071D01*
X155392857Y-126544642D01*
X155357142Y-126473214D01*
X155321428Y-126330357D01*
X155321428Y-126223214D01*
X155357142Y-126080357D01*
X155392857Y-126008928D01*
X155464285Y-125937500D01*
X155571428Y-125901785D01*
X155642857Y-125901785D01*
X155750000Y-125937500D01*
X155785714Y-125973214D01*
X156428571Y-126651785D02*
X156428571Y-126258928D01*
X156392857Y-126187500D01*
X156321428Y-126151785D01*
X156178571Y-126151785D01*
X156107142Y-126187500D01*
X156428571Y-126616071D02*
X156357142Y-126651785D01*
X156178571Y-126651785D01*
X156107142Y-126616071D01*
X156071428Y-126544642D01*
X156071428Y-126473214D01*
X156107142Y-126401785D01*
X156178571Y-126366071D01*
X156357142Y-126366071D01*
X156428571Y-126330357D01*
X156785714Y-126651785D02*
X156785714Y-126151785D01*
X156785714Y-126223214D02*
X156821428Y-126187500D01*
X156892857Y-126151785D01*
X157000000Y-126151785D01*
X157071428Y-126187500D01*
X157107142Y-126258928D01*
X157107142Y-126651785D01*
X157107142Y-126258928D02*
X157142857Y-126187500D01*
X157214285Y-126151785D01*
X157321428Y-126151785D01*
X157392857Y-126187500D01*
X157428571Y-126258928D01*
X157428571Y-126651785D01*
X158071428Y-126616071D02*
X158000000Y-126651785D01*
X157857142Y-126651785D01*
X157785714Y-126616071D01*
X157750000Y-126544642D01*
X157750000Y-126258928D01*
X157785714Y-126187500D01*
X157857142Y-126151785D01*
X158000000Y-126151785D01*
X158071428Y-126187500D01*
X158107142Y-126258928D01*
X158107142Y-126330357D01*
X157750000Y-126401785D01*
X158428571Y-126651785D02*
X158428571Y-126151785D01*
X158428571Y-126294642D02*
X158464285Y-126223214D01*
X158500000Y-126187500D01*
X158571428Y-126151785D01*
X158642857Y-126151785D01*
X159214285Y-126651785D02*
X159214285Y-126258928D01*
X159178571Y-126187500D01*
X159107142Y-126151785D01*
X158964285Y-126151785D01*
X158892857Y-126187500D01*
X159214285Y-126616071D02*
X159142857Y-126651785D01*
X158964285Y-126651785D01*
X158892857Y-126616071D01*
X158857142Y-126544642D01*
X158857142Y-126473214D01*
X158892857Y-126401785D01*
X158964285Y-126366071D01*
X159142857Y-126366071D01*
X159214285Y-126330357D01*
X160035714Y-126151785D02*
X160321428Y-126151785D01*
X160142857Y-125901785D02*
X160142857Y-126544642D01*
X160178571Y-126616071D01*
X160250000Y-126651785D01*
X160321428Y-126651785D01*
X160892857Y-126651785D02*
X160892857Y-126258928D01*
X160857142Y-126187500D01*
X160785714Y-126151785D01*
X160642857Y-126151785D01*
X160571428Y-126187500D01*
X160892857Y-126616071D02*
X160821428Y-126651785D01*
X160642857Y-126651785D01*
X160571428Y-126616071D01*
X160535714Y-126544642D01*
X160535714Y-126473214D01*
X160571428Y-126401785D01*
X160642857Y-126366071D01*
X160821428Y-126366071D01*
X160892857Y-126330357D01*
X161250000Y-126651785D02*
X161250000Y-125901785D01*
X161250000Y-126187500D02*
X161321428Y-126151785D01*
X161464285Y-126151785D01*
X161535714Y-126187500D01*
X161571428Y-126223214D01*
X161607142Y-126294642D01*
X161607142Y-126508928D01*
X161571428Y-126580357D01*
X161535714Y-126616071D01*
X161464285Y-126651785D01*
X161321428Y-126651785D01*
X161250000Y-126616071D01*
X155392857Y-127426785D02*
X155678571Y-127426785D01*
X155500000Y-127176785D02*
X155500000Y-127819642D01*
X155535714Y-127891071D01*
X155607142Y-127926785D01*
X155678571Y-127926785D01*
X155928571Y-127926785D02*
X155928571Y-127176785D01*
X156250000Y-127926785D02*
X156250000Y-127533928D01*
X156214285Y-127462500D01*
X156142857Y-127426785D01*
X156035714Y-127426785D01*
X155964285Y-127462500D01*
X155928571Y-127498214D01*
X156607142Y-127926785D02*
X156607142Y-127426785D01*
X156607142Y-127176785D02*
X156571428Y-127212500D01*
X156607142Y-127248214D01*
X156642857Y-127212500D01*
X156607142Y-127176785D01*
X156607142Y-127248214D01*
X156928571Y-127891071D02*
X157000000Y-127926785D01*
X157142857Y-127926785D01*
X157214285Y-127891071D01*
X157250000Y-127819642D01*
X157250000Y-127783928D01*
X157214285Y-127712500D01*
X157142857Y-127676785D01*
X157035714Y-127676785D01*
X156964285Y-127641071D01*
X156928571Y-127569642D01*
X156928571Y-127533928D01*
X156964285Y-127462500D01*
X157035714Y-127426785D01*
X157142857Y-127426785D01*
X157214285Y-127462500D01*
X158107142Y-127891071D02*
X158178571Y-127926785D01*
X158321428Y-127926785D01*
X158392857Y-127891071D01*
X158428571Y-127819642D01*
X158428571Y-127783928D01*
X158392857Y-127712500D01*
X158321428Y-127676785D01*
X158214285Y-127676785D01*
X158142857Y-127641071D01*
X158107142Y-127569642D01*
X158107142Y-127533928D01*
X158142857Y-127462500D01*
X158214285Y-127426785D01*
X158321428Y-127426785D01*
X158392857Y-127462500D01*
X158750000Y-127926785D02*
X158750000Y-127426785D01*
X158750000Y-127176785D02*
X158714285Y-127212500D01*
X158750000Y-127248214D01*
X158785714Y-127212500D01*
X158750000Y-127176785D01*
X158750000Y-127248214D01*
X159428571Y-127926785D02*
X159428571Y-127176785D01*
X159428571Y-127891071D02*
X159357142Y-127926785D01*
X159214285Y-127926785D01*
X159142857Y-127891071D01*
X159107142Y-127855357D01*
X159071428Y-127783928D01*
X159071428Y-127569642D01*
X159107142Y-127498214D01*
X159142857Y-127462500D01*
X159214285Y-127426785D01*
X159357142Y-127426785D01*
X159428571Y-127462500D01*
X160071428Y-127891071D02*
X160000000Y-127926785D01*
X159857142Y-127926785D01*
X159785714Y-127891071D01*
X159750000Y-127819642D01*
X159750000Y-127533928D01*
X159785714Y-127462500D01*
X159857142Y-127426785D01*
X160000000Y-127426785D01*
X160071428Y-127462500D01*
X160107142Y-127533928D01*
X160107142Y-127605357D01*
X159750000Y-127676785D01*
X161321428Y-127426785D02*
X161321428Y-127926785D01*
X161000000Y-127426785D02*
X161000000Y-127819642D01*
X161035714Y-127891071D01*
X161107142Y-127926785D01*
X161214285Y-127926785D01*
X161285714Y-127891071D01*
X161321428Y-127855357D01*
X161678571Y-127426785D02*
X161678571Y-128176785D01*
X161678571Y-127462500D02*
X161750000Y-127426785D01*
X161892857Y-127426785D01*
X161964285Y-127462500D01*
X162000000Y-127498214D01*
X162035714Y-127569642D01*
X162035714Y-127783928D01*
X162000000Y-127855357D01*
X161964285Y-127891071D01*
X161892857Y-127926785D01*
X161750000Y-127926785D01*
X161678571Y-127891071D01*
X144405000Y-121221428D02*
X144369285Y-121292857D01*
X144369285Y-121400000D01*
X144405000Y-121507142D01*
X144476428Y-121578571D01*
X144547857Y-121614285D01*
X144690714Y-121650000D01*
X144797857Y-121650000D01*
X144940714Y-121614285D01*
X145012142Y-121578571D01*
X145083571Y-121507142D01*
X145119285Y-121400000D01*
X145119285Y-121328571D01*
X145083571Y-121221428D01*
X145047857Y-121185714D01*
X144797857Y-121185714D01*
X144797857Y-121328571D01*
X145119285Y-120864285D02*
X144369285Y-120864285D01*
X145119285Y-120435714D01*
X144369285Y-120435714D01*
X145119285Y-120078571D02*
X144369285Y-120078571D01*
X144369285Y-119900000D01*
X144405000Y-119792857D01*
X144476428Y-119721428D01*
X144547857Y-119685714D01*
X144690714Y-119650000D01*
X144797857Y-119650000D01*
X144940714Y-119685714D01*
X145012142Y-119721428D01*
X145083571Y-119792857D01*
X145119285Y-119900000D01*
X145119285Y-120078571D01*
X145083571Y-129162857D02*
X145119285Y-129055714D01*
X145119285Y-128877142D01*
X145083571Y-128805714D01*
X145047857Y-128770000D01*
X144976428Y-128734285D01*
X144905000Y-128734285D01*
X144833571Y-128770000D01*
X144797857Y-128805714D01*
X144762142Y-128877142D01*
X144726428Y-129020000D01*
X144690714Y-129091428D01*
X144655000Y-129127142D01*
X144583571Y-129162857D01*
X144512142Y-129162857D01*
X144440714Y-129127142D01*
X144405000Y-129091428D01*
X144369285Y-129020000D01*
X144369285Y-128841428D01*
X144405000Y-128734285D01*
X145047857Y-127984285D02*
X145083571Y-128020000D01*
X145119285Y-128127142D01*
X145119285Y-128198571D01*
X145083571Y-128305714D01*
X145012142Y-128377142D01*
X144940714Y-128412857D01*
X144797857Y-128448571D01*
X144690714Y-128448571D01*
X144547857Y-128412857D01*
X144476428Y-128377142D01*
X144405000Y-128305714D01*
X144369285Y-128198571D01*
X144369285Y-128127142D01*
X144405000Y-128020000D01*
X144440714Y-127984285D01*
X145119285Y-127305714D02*
X145119285Y-127662857D01*
X144369285Y-127662857D01*
D11*
X162544238Y-120622190D02*
X162544238Y-120122190D01*
X162734714Y-120122190D01*
X162782333Y-120146000D01*
X162806142Y-120169809D01*
X162829952Y-120217428D01*
X162829952Y-120288857D01*
X162806142Y-120336476D01*
X162782333Y-120360285D01*
X162734714Y-120384095D01*
X162544238Y-120384095D01*
X163044238Y-120622190D02*
X163044238Y-120288857D01*
X163044238Y-120122190D02*
X163020428Y-120146000D01*
X163044238Y-120169809D01*
X163068047Y-120146000D01*
X163044238Y-120122190D01*
X163044238Y-120169809D01*
X163282333Y-120288857D02*
X163282333Y-120622190D01*
X163282333Y-120336476D02*
X163306142Y-120312666D01*
X163353761Y-120288857D01*
X163425190Y-120288857D01*
X163472809Y-120312666D01*
X163496619Y-120360285D01*
X163496619Y-120622190D01*
X164187095Y-120336476D02*
X164139476Y-120312666D01*
X164115666Y-120288857D01*
X164091857Y-120241238D01*
X164091857Y-120217428D01*
X164115666Y-120169809D01*
X164139476Y-120146000D01*
X164187095Y-120122190D01*
X164282333Y-120122190D01*
X164329952Y-120146000D01*
X164353761Y-120169809D01*
X164377571Y-120217428D01*
X164377571Y-120241238D01*
X164353761Y-120288857D01*
X164329952Y-120312666D01*
X164282333Y-120336476D01*
X164187095Y-120336476D01*
X164139476Y-120360285D01*
X164115666Y-120384095D01*
X164091857Y-120431714D01*
X164091857Y-120526952D01*
X164115666Y-120574571D01*
X164139476Y-120598380D01*
X164187095Y-120622190D01*
X164282333Y-120622190D01*
X164329952Y-120598380D01*
X164353761Y-120574571D01*
X164377571Y-120526952D01*
X164377571Y-120431714D01*
X164353761Y-120384095D01*
X164329952Y-120360285D01*
X164282333Y-120336476D01*
D10*
X145083571Y-126640714D02*
X145119285Y-126533571D01*
X145119285Y-126355000D01*
X145083571Y-126283571D01*
X145047857Y-126247857D01*
X144976428Y-126212142D01*
X144905000Y-126212142D01*
X144833571Y-126247857D01*
X144797857Y-126283571D01*
X144762142Y-126355000D01*
X144726428Y-126497857D01*
X144690714Y-126569285D01*
X144655000Y-126605000D01*
X144583571Y-126640714D01*
X144512142Y-126640714D01*
X144440714Y-126605000D01*
X144405000Y-126569285D01*
X144369285Y-126497857D01*
X144369285Y-126319285D01*
X144405000Y-126212142D01*
X145119285Y-125890714D02*
X144369285Y-125890714D01*
X144369285Y-125712142D01*
X144405000Y-125605000D01*
X144476428Y-125533571D01*
X144547857Y-125497857D01*
X144690714Y-125462142D01*
X144797857Y-125462142D01*
X144940714Y-125497857D01*
X145012142Y-125533571D01*
X145083571Y-125605000D01*
X145119285Y-125712142D01*
X145119285Y-125890714D01*
X144905000Y-125176428D02*
X144905000Y-124819285D01*
X145119285Y-125247857D02*
X144369285Y-124997857D01*
X145119285Y-124747857D01*
X144369285Y-124286857D02*
X145119285Y-124036857D01*
X144369285Y-123786857D01*
X145083571Y-123215428D02*
X145119285Y-123286857D01*
X145119285Y-123429714D01*
X145083571Y-123501142D01*
X145047857Y-123536857D01*
X144976428Y-123572571D01*
X144762142Y-123572571D01*
X144690714Y-123536857D01*
X144655000Y-123501142D01*
X144619285Y-123429714D01*
X144619285Y-123286857D01*
X144655000Y-123215428D01*
X145083571Y-122572571D02*
X145119285Y-122644000D01*
X145119285Y-122786857D01*
X145083571Y-122858285D01*
X145047857Y-122894000D01*
X144976428Y-122929714D01*
X144762142Y-122929714D01*
X144690714Y-122894000D01*
X144655000Y-122858285D01*
X144619285Y-122786857D01*
X144619285Y-122644000D01*
X144655000Y-122572571D01*
D11*
X162568047Y-128162857D02*
X162568047Y-128662857D01*
X162568047Y-128186666D02*
X162615666Y-128162857D01*
X162710904Y-128162857D01*
X162758523Y-128186666D01*
X162782333Y-128210476D01*
X162806142Y-128258095D01*
X162806142Y-128400952D01*
X162782333Y-128448571D01*
X162758523Y-128472380D01*
X162710904Y-128496190D01*
X162615666Y-128496190D01*
X162568047Y-128472380D01*
X163020428Y-128496190D02*
X163020428Y-128162857D01*
X163020428Y-127996190D02*
X162996619Y-128020000D01*
X163020428Y-128043809D01*
X163044238Y-128020000D01*
X163020428Y-127996190D01*
X163020428Y-128043809D01*
X163258523Y-128162857D02*
X163258523Y-128496190D01*
X163258523Y-128210476D02*
X163282333Y-128186666D01*
X163329952Y-128162857D01*
X163401380Y-128162857D01*
X163449000Y-128186666D01*
X163472809Y-128234285D01*
X163472809Y-128496190D01*
X164353761Y-128496190D02*
X164068047Y-128496190D01*
X164210904Y-128496190D02*
X164210904Y-127996190D01*
X164163285Y-128067619D01*
X164115666Y-128115238D01*
X164068047Y-128139047D01*
D12*
X159882064Y-121970000D02*
X159427936Y-121970000D01*
X159882064Y-120500000D02*
X159427936Y-120500000D01*
X162965000Y-127110000D02*
X165965000Y-127110000D01*
X165965000Y-128260000D02*
X162965000Y-128260000D01*
X165965000Y-120560000D02*
X165965000Y-128260000D01*
X162965000Y-120560000D02*
X165965000Y-120560000D01*
X162965000Y-128260000D02*
X162965000Y-120560000D01*
X147940752Y-121335000D02*
X147418248Y-121335000D01*
X147940752Y-119865000D02*
X147418248Y-119865000D01*
X147219936Y-124945000D02*
X147674064Y-124945000D01*
X147219936Y-126415000D02*
X147674064Y-126415000D01*
X144145000Y-129490000D02*
X142875000Y-129490000D01*
X144145000Y-128220000D02*
X144145000Y-129490000D01*
X141832071Y-120220000D02*
X141435000Y-120220000D01*
X141832071Y-120980000D02*
X141435000Y-120980000D01*
X132775000Y-120220000D02*
X138775000Y-120220000D01*
X132775000Y-120980000D02*
X132775000Y-120220000D01*
X138775000Y-120980000D02*
X132775000Y-120980000D01*
X141435000Y-121870000D02*
X138775000Y-121870000D01*
X141832071Y-122760000D02*
X141435000Y-122760000D01*
X141832071Y-123520000D02*
X141435000Y-123520000D01*
X132775000Y-122760000D02*
X138775000Y-122760000D01*
X132775000Y-123520000D02*
X132775000Y-122760000D01*
X138775000Y-123520000D02*
X132775000Y-123520000D01*
X141435000Y-124410000D02*
X138775000Y-124410000D01*
X141832071Y-125300000D02*
X141435000Y-125300000D01*
X141832071Y-126060000D02*
X141435000Y-126060000D01*
X132775000Y-125300000D02*
X138775000Y-125300000D01*
X132775000Y-126060000D02*
X132775000Y-125300000D01*
X138775000Y-126060000D02*
X132775000Y-126060000D01*
X141435000Y-126950000D02*
X138775000Y-126950000D01*
X141765000Y-127840000D02*
X141435000Y-127840000D01*
X141765000Y-128600000D02*
X141435000Y-128600000D01*
X138775000Y-127940000D02*
X132775000Y-127940000D01*
X138775000Y-128060000D02*
X132775000Y-128060000D01*
X138775000Y-128180000D02*
X132775000Y-128180000D01*
X138775000Y-128300000D02*
X132775000Y-128300000D01*
X138775000Y-128420000D02*
X132775000Y-128420000D01*
X138775000Y-128540000D02*
X132775000Y-128540000D01*
X132775000Y-127840000D02*
X138775000Y-127840000D01*
X132775000Y-128600000D02*
X132775000Y-127840000D01*
X138775000Y-128600000D02*
X132775000Y-128600000D01*
X138775000Y-129550000D02*
X141435000Y-129550000D01*
X138775000Y-119270000D02*
X138775000Y-129550000D01*
X141435000Y-119270000D02*
X138775000Y-119270000D01*
X141435000Y-129550000D02*
X141435000Y-119270000D01*
X147219936Y-128955000D02*
X147674064Y-128955000D01*
X147219936Y-127485000D02*
X147674064Y-127485000D01*
X156572000Y-119675000D02*
X156572000Y-125685000D01*
X149752000Y-121925000D02*
X149752000Y-125685000D01*
X156572000Y-125685000D02*
X155312000Y-125685000D01*
X149752000Y-125685000D02*
X151012000Y-125685000D01*
D10*
X159488333Y-123337380D02*
X159155000Y-122861190D01*
X158916904Y-123337380D02*
X158916904Y-122337380D01*
X159297857Y-122337380D01*
X159393095Y-122385000D01*
X159440714Y-122432619D01*
X159488333Y-122527857D01*
X159488333Y-122670714D01*
X159440714Y-122765952D01*
X159393095Y-122813571D01*
X159297857Y-122861190D01*
X158916904Y-122861190D01*
X159821666Y-122337380D02*
X160440714Y-122337380D01*
X160107380Y-122718333D01*
X160250238Y-122718333D01*
X160345476Y-122765952D01*
X160393095Y-122813571D01*
X160440714Y-122908809D01*
X160440714Y-123146904D01*
X160393095Y-123242142D01*
X160345476Y-123289761D01*
X160250238Y-123337380D01*
X159964523Y-123337380D01*
X159869285Y-123289761D01*
X159821666Y-123242142D01*
X147512833Y-122637142D02*
X147465214Y-122684761D01*
X147322357Y-122732380D01*
X147227119Y-122732380D01*
X147084261Y-122684761D01*
X146989023Y-122589523D01*
X146941404Y-122494285D01*
X146893785Y-122303809D01*
X146893785Y-122160952D01*
X146941404Y-121970476D01*
X146989023Y-121875238D01*
X147084261Y-121780000D01*
X147227119Y-121732380D01*
X147322357Y-121732380D01*
X147465214Y-121780000D01*
X147512833Y-121827619D01*
X148465214Y-122732380D02*
X147893785Y-122732380D01*
X148179500Y-122732380D02*
X148179500Y-121732380D01*
X148084261Y-121875238D01*
X147989023Y-121970476D01*
X147893785Y-122018095D01*
X147280333Y-124482380D02*
X146947000Y-124006190D01*
X146708904Y-124482380D02*
X146708904Y-123482380D01*
X147089857Y-123482380D01*
X147185095Y-123530000D01*
X147232714Y-123577619D01*
X147280333Y-123672857D01*
X147280333Y-123815714D01*
X147232714Y-123910952D01*
X147185095Y-123958571D01*
X147089857Y-124006190D01*
X146708904Y-124006190D01*
X148232714Y-124482380D02*
X147661285Y-124482380D01*
X147947000Y-124482380D02*
X147947000Y-123482380D01*
X147851761Y-123625238D01*
X147756523Y-123720476D01*
X147661285Y-123768095D01*
X150201333Y-129434380D02*
X149868000Y-128958190D01*
X149629904Y-129434380D02*
X149629904Y-128434380D01*
X150010857Y-128434380D01*
X150106095Y-128482000D01*
X150153714Y-128529619D01*
X150201333Y-128624857D01*
X150201333Y-128767714D01*
X150153714Y-128862952D01*
X150106095Y-128910571D01*
X150010857Y-128958190D01*
X149629904Y-128958190D01*
X150582285Y-128529619D02*
X150629904Y-128482000D01*
X150725142Y-128434380D01*
X150963238Y-128434380D01*
X151058476Y-128482000D01*
X151106095Y-128529619D01*
X151153714Y-128624857D01*
X151153714Y-128720095D01*
X151106095Y-128862952D01*
X150534666Y-129434380D01*
X151153714Y-129434380D01*
X157114380Y-124536904D02*
X157923904Y-124536904D01*
X158019142Y-124489285D01*
X158066761Y-124441666D01*
X158114380Y-124346428D01*
X158114380Y-124155952D01*
X158066761Y-124060714D01*
X158019142Y-124013095D01*
X157923904Y-123965476D01*
X157114380Y-123965476D01*
X158114380Y-122965476D02*
X158114380Y-123536904D01*
X158114380Y-123251190D02*
X157114380Y-123251190D01*
X157257238Y-123346428D01*
X157352476Y-123441666D01*
X157400095Y-123536904D01*
%LPC*%
G36*
G01*
X161306000Y-120755248D02*
X161306000Y-121714752D01*
G75*
G02*
X161034752Y-121986000I-271248J0D01*
G01*
X160275248Y-121986000D01*
G75*
G02*
X160004000Y-121714752I0J271248D01*
G01*
X160004000Y-120755248D01*
G75*
G02*
X160275248Y-120484000I271248J0D01*
G01*
X161034752Y-120484000D01*
G75*
G02*
X161306000Y-120755248I0J-271248D01*
G01*
G37*
G36*
G01*
X159306000Y-120755248D02*
X159306000Y-121714752D01*
G75*
G02*
X159034752Y-121986000I-271248J0D01*
G01*
X158275248Y-121986000D01*
G75*
G02*
X158004000Y-121714752I0J271248D01*
G01*
X158004000Y-120755248D01*
G75*
G02*
X158275248Y-120484000I271248J0D01*
G01*
X159034752Y-120484000D01*
G75*
G02*
X159306000Y-120755248I0J-271248D01*
G01*
G37*
D13*
X164465000Y-121260000D03*
D14*
X164465000Y-122160000D03*
X164465000Y-123060000D03*
X164465000Y-123960000D03*
X164465000Y-124860000D03*
X164465000Y-125760000D03*
X164465000Y-126660000D03*
X164465000Y-127560000D03*
G36*
G01*
X149355500Y-120095702D02*
X149355500Y-121104298D01*
G75*
G02*
X149083798Y-121376000I-271702J0D01*
G01*
X148350202Y-121376000D01*
G75*
G02*
X148078500Y-121104298I0J271702D01*
G01*
X148078500Y-120095702D01*
G75*
G02*
X148350202Y-119824000I271702J0D01*
G01*
X149083798Y-119824000D01*
G75*
G02*
X149355500Y-120095702I0J-271702D01*
G01*
G37*
G36*
G01*
X147280500Y-120095702D02*
X147280500Y-121104298D01*
G75*
G02*
X147008798Y-121376000I-271702J0D01*
G01*
X146275202Y-121376000D01*
G75*
G02*
X146003500Y-121104298I0J271702D01*
G01*
X146003500Y-120095702D01*
G75*
G02*
X146275202Y-119824000I271702J0D01*
G01*
X147008798Y-119824000D01*
G75*
G02*
X147280500Y-120095702I0J-271702D01*
G01*
G37*
G36*
G01*
X145796000Y-126159752D02*
X145796000Y-125200248D01*
G75*
G02*
X146067248Y-124929000I271248J0D01*
G01*
X146826752Y-124929000D01*
G75*
G02*
X147098000Y-125200248I0J-271248D01*
G01*
X147098000Y-126159752D01*
G75*
G02*
X146826752Y-126431000I-271248J0D01*
G01*
X146067248Y-126431000D01*
G75*
G02*
X145796000Y-126159752I0J271248D01*
G01*
G37*
G36*
G01*
X147796000Y-126159752D02*
X147796000Y-125200248D01*
G75*
G02*
X148067248Y-124929000I271248J0D01*
G01*
X148826752Y-124929000D01*
G75*
G02*
X149098000Y-125200248I0J-271248D01*
G01*
X149098000Y-126159752D01*
G75*
G02*
X148826752Y-126431000I-271248J0D01*
G01*
X148067248Y-126431000D01*
G75*
G02*
X147796000Y-126159752I0J271248D01*
G01*
G37*
D15*
X142875000Y-120600000D03*
X142875000Y-123140000D03*
X142875000Y-125680000D03*
G36*
G01*
X143776000Y-127370000D02*
X143776000Y-129070000D01*
G75*
G02*
X143725000Y-129121000I-51000J0D01*
G01*
X142025000Y-129121000D01*
G75*
G02*
X141974000Y-129070000I0J51000D01*
G01*
X141974000Y-127370000D01*
G75*
G02*
X142025000Y-127319000I51000J0D01*
G01*
X143725000Y-127319000D01*
G75*
G02*
X143776000Y-127370000I0J-51000D01*
G01*
G37*
G36*
G01*
X147796000Y-128699752D02*
X147796000Y-127740248D01*
G75*
G02*
X148067248Y-127469000I271248J0D01*
G01*
X148826752Y-127469000D01*
G75*
G02*
X149098000Y-127740248I0J-271248D01*
G01*
X149098000Y-128699752D01*
G75*
G02*
X148826752Y-128971000I-271248J0D01*
G01*
X148067248Y-128971000D01*
G75*
G02*
X147796000Y-128699752I0J271248D01*
G01*
G37*
G36*
G01*
X145796000Y-128699752D02*
X145796000Y-127740248D01*
G75*
G02*
X146067248Y-127469000I271248J0D01*
G01*
X146826752Y-127469000D01*
G75*
G02*
X147098000Y-127740248I0J-271248D01*
G01*
X147098000Y-128699752D01*
G75*
G02*
X146826752Y-128971000I-271248J0D01*
G01*
X146067248Y-128971000D01*
G75*
G02*
X145796000Y-128699752I0J271248D01*
G01*
G37*
G36*
G01*
X154712000Y-119574000D02*
X156212000Y-119574000D01*
G75*
G02*
X156263000Y-119625000I0J-51000D01*
G01*
X156263000Y-121625000D01*
G75*
G02*
X156212000Y-121676000I-51000J0D01*
G01*
X154712000Y-121676000D01*
G75*
G02*
X154661000Y-121625000I0J51000D01*
G01*
X154661000Y-119625000D01*
G75*
G02*
X154712000Y-119574000I51000J0D01*
G01*
G37*
G36*
G01*
X150112000Y-119574000D02*
X151612000Y-119574000D01*
G75*
G02*
X151663000Y-119625000I0J-51000D01*
G01*
X151663000Y-121625000D01*
G75*
G02*
X151612000Y-121676000I-51000J0D01*
G01*
X150112000Y-121676000D01*
G75*
G02*
X150061000Y-121625000I0J51000D01*
G01*
X150061000Y-119625000D01*
G75*
G02*
X150112000Y-119574000I51000J0D01*
G01*
G37*
G36*
G01*
X152412000Y-119574000D02*
X153912000Y-119574000D01*
G75*
G02*
X153963000Y-119625000I0J-51000D01*
G01*
X153963000Y-121625000D01*
G75*
G02*
X153912000Y-121676000I-51000J0D01*
G01*
X152412000Y-121676000D01*
G75*
G02*
X152361000Y-121625000I0J51000D01*
G01*
X152361000Y-119625000D01*
G75*
G02*
X152412000Y-119574000I51000J0D01*
G01*
G37*
G36*
G01*
X151262000Y-125874000D02*
X155062000Y-125874000D01*
G75*
G02*
X155113000Y-125925000I0J-51000D01*
G01*
X155113000Y-127925000D01*
G75*
G02*
X155062000Y-127976000I-51000J0D01*
G01*
X151262000Y-127976000D01*
G75*
G02*
X151211000Y-127925000I0J51000D01*
G01*
X151211000Y-125925000D01*
G75*
G02*
X151262000Y-125874000I51000J0D01*
G01*
G37*
M02*
