%TF.GenerationSoftware,KiCad,Pcbnew,(5.1.12)-1*%
%TF.CreationDate,2022-05-01T00:00:51+01:00*%
%TF.ProjectId,wiicam,77696963-616d-42e6-9b69-6361645f7063,rev?*%
%TF.SameCoordinates,Original*%
%TF.FileFunction,Legend,Bot*%
%TF.FilePolarity,Positive*%
%FSLAX46Y46*%
G04 Gerber Fmt 4.6, Leading zero omitted, Abs format (unit mm)*
G04 Created by KiCad (PCBNEW (5.1.12)-1) date 2022-05-01 00:00:51*
%MOMM*%
%LPD*%
G01*
G04 APERTURE LIST*
%ADD10C,0.125000*%
%ADD11C,0.120000*%
%ADD12C,0.150000*%
%ADD13O,1.802000X1.802000*%
G04 APERTURE END LIST*
D10*
X144521071Y-121314761D02*
X144544880Y-121290952D01*
X144568690Y-121219523D01*
X144568690Y-121171904D01*
X144544880Y-121100476D01*
X144497261Y-121052857D01*
X144449642Y-121029047D01*
X144354404Y-121005238D01*
X144282976Y-121005238D01*
X144187738Y-121029047D01*
X144140119Y-121052857D01*
X144092500Y-121100476D01*
X144068690Y-121171904D01*
X144068690Y-121219523D01*
X144092500Y-121290952D01*
X144116309Y-121314761D01*
X144568690Y-121529047D02*
X144235357Y-121529047D01*
X144330595Y-121529047D02*
X144282976Y-121552857D01*
X144259166Y-121576666D01*
X144235357Y-121624285D01*
X144235357Y-121671904D01*
X144544880Y-122029047D02*
X144568690Y-121981428D01*
X144568690Y-121886190D01*
X144544880Y-121838571D01*
X144497261Y-121814761D01*
X144306785Y-121814761D01*
X144259166Y-121838571D01*
X144235357Y-121886190D01*
X144235357Y-121981428D01*
X144259166Y-122029047D01*
X144306785Y-122052857D01*
X144354404Y-122052857D01*
X144402023Y-121814761D01*
X144568690Y-122481428D02*
X144306785Y-122481428D01*
X144259166Y-122457619D01*
X144235357Y-122410000D01*
X144235357Y-122314761D01*
X144259166Y-122267142D01*
X144544880Y-122481428D02*
X144568690Y-122433809D01*
X144568690Y-122314761D01*
X144544880Y-122267142D01*
X144497261Y-122243333D01*
X144449642Y-122243333D01*
X144402023Y-122267142D01*
X144378214Y-122314761D01*
X144378214Y-122433809D01*
X144354404Y-122481428D01*
X144235357Y-122648095D02*
X144235357Y-122838571D01*
X144068690Y-122719523D02*
X144497261Y-122719523D01*
X144544880Y-122743333D01*
X144568690Y-122790952D01*
X144568690Y-122838571D01*
X144568690Y-123005238D02*
X144235357Y-123005238D01*
X144068690Y-123005238D02*
X144092500Y-122981428D01*
X144116309Y-123005238D01*
X144092500Y-123029047D01*
X144068690Y-123005238D01*
X144116309Y-123005238D01*
X144235357Y-123195714D02*
X144568690Y-123314761D01*
X144235357Y-123433809D01*
X144544880Y-123814761D02*
X144568690Y-123767142D01*
X144568690Y-123671904D01*
X144544880Y-123624285D01*
X144497261Y-123600476D01*
X144306785Y-123600476D01*
X144259166Y-123624285D01*
X144235357Y-123671904D01*
X144235357Y-123767142D01*
X144259166Y-123814761D01*
X144306785Y-123838571D01*
X144354404Y-123838571D01*
X144402023Y-123600476D01*
X144521071Y-124719523D02*
X144544880Y-124695714D01*
X144568690Y-124624285D01*
X144568690Y-124576666D01*
X144544880Y-124505238D01*
X144497261Y-124457619D01*
X144449642Y-124433809D01*
X144354404Y-124410000D01*
X144282976Y-124410000D01*
X144187738Y-124433809D01*
X144140119Y-124457619D01*
X144092500Y-124505238D01*
X144068690Y-124576666D01*
X144068690Y-124624285D01*
X144092500Y-124695714D01*
X144116309Y-124719523D01*
X144568690Y-125005238D02*
X144544880Y-124957619D01*
X144521071Y-124933809D01*
X144473452Y-124910000D01*
X144330595Y-124910000D01*
X144282976Y-124933809D01*
X144259166Y-124957619D01*
X144235357Y-125005238D01*
X144235357Y-125076666D01*
X144259166Y-125124285D01*
X144282976Y-125148095D01*
X144330595Y-125171904D01*
X144473452Y-125171904D01*
X144521071Y-125148095D01*
X144544880Y-125124285D01*
X144568690Y-125076666D01*
X144568690Y-125005238D01*
X144568690Y-125386190D02*
X144235357Y-125386190D01*
X144282976Y-125386190D02*
X144259166Y-125410000D01*
X144235357Y-125457619D01*
X144235357Y-125529047D01*
X144259166Y-125576666D01*
X144306785Y-125600476D01*
X144568690Y-125600476D01*
X144306785Y-125600476D02*
X144259166Y-125624285D01*
X144235357Y-125671904D01*
X144235357Y-125743333D01*
X144259166Y-125790952D01*
X144306785Y-125814761D01*
X144568690Y-125814761D01*
X144568690Y-126052857D02*
X144235357Y-126052857D01*
X144282976Y-126052857D02*
X144259166Y-126076666D01*
X144235357Y-126124285D01*
X144235357Y-126195714D01*
X144259166Y-126243333D01*
X144306785Y-126267142D01*
X144568690Y-126267142D01*
X144306785Y-126267142D02*
X144259166Y-126290952D01*
X144235357Y-126338571D01*
X144235357Y-126410000D01*
X144259166Y-126457619D01*
X144306785Y-126481428D01*
X144568690Y-126481428D01*
X144568690Y-126790952D02*
X144544880Y-126743333D01*
X144521071Y-126719523D01*
X144473452Y-126695714D01*
X144330595Y-126695714D01*
X144282976Y-126719523D01*
X144259166Y-126743333D01*
X144235357Y-126790952D01*
X144235357Y-126862380D01*
X144259166Y-126910000D01*
X144282976Y-126933809D01*
X144330595Y-126957619D01*
X144473452Y-126957619D01*
X144521071Y-126933809D01*
X144544880Y-126910000D01*
X144568690Y-126862380D01*
X144568690Y-126790952D01*
X144235357Y-127171904D02*
X144568690Y-127171904D01*
X144282976Y-127171904D02*
X144259166Y-127195714D01*
X144235357Y-127243333D01*
X144235357Y-127314761D01*
X144259166Y-127362380D01*
X144306785Y-127386190D01*
X144568690Y-127386190D01*
X144544880Y-127600476D02*
X144568690Y-127648095D01*
X144568690Y-127743333D01*
X144544880Y-127790952D01*
X144497261Y-127814761D01*
X144473452Y-127814761D01*
X144425833Y-127790952D01*
X144402023Y-127743333D01*
X144402023Y-127671904D01*
X144378214Y-127624285D01*
X144330595Y-127600476D01*
X144306785Y-127600476D01*
X144259166Y-127624285D01*
X144235357Y-127671904D01*
X144235357Y-127743333D01*
X144259166Y-127790952D01*
X145300833Y-121683809D02*
X145300833Y-121921904D01*
X145443690Y-121636190D02*
X144943690Y-121802857D01*
X145443690Y-121969523D01*
X145110357Y-122064761D02*
X145110357Y-122255238D01*
X144943690Y-122136190D02*
X145372261Y-122136190D01*
X145419880Y-122160000D01*
X145443690Y-122207619D01*
X145443690Y-122255238D01*
X145110357Y-122350476D02*
X145110357Y-122540952D01*
X144943690Y-122421904D02*
X145372261Y-122421904D01*
X145419880Y-122445714D01*
X145443690Y-122493333D01*
X145443690Y-122540952D01*
X145443690Y-122707619D02*
X145110357Y-122707619D01*
X145205595Y-122707619D02*
X145157976Y-122731428D01*
X145134166Y-122755238D01*
X145110357Y-122802857D01*
X145110357Y-122850476D01*
X145396071Y-123017142D02*
X145419880Y-123040952D01*
X145443690Y-123017142D01*
X145419880Y-122993333D01*
X145396071Y-123017142D01*
X145443690Y-123017142D01*
X145253214Y-123636190D02*
X145253214Y-124017142D01*
X145419880Y-124612380D02*
X145443690Y-124683809D01*
X145443690Y-124802857D01*
X145419880Y-124850476D01*
X145396071Y-124874285D01*
X145348452Y-124898095D01*
X145300833Y-124898095D01*
X145253214Y-124874285D01*
X145229404Y-124850476D01*
X145205595Y-124802857D01*
X145181785Y-124707619D01*
X145157976Y-124660000D01*
X145134166Y-124636190D01*
X145086547Y-124612380D01*
X145038928Y-124612380D01*
X144991309Y-124636190D01*
X144967500Y-124660000D01*
X144943690Y-124707619D01*
X144943690Y-124826666D01*
X144967500Y-124898095D01*
X145300833Y-125088571D02*
X145300833Y-125326666D01*
X145443690Y-125040952D02*
X144943690Y-125207619D01*
X145443690Y-125374285D01*
X145396071Y-125540952D02*
X145419880Y-125564761D01*
X145443690Y-125540952D01*
X145419880Y-125517142D01*
X145396071Y-125540952D01*
X145443690Y-125540952D01*
X145110357Y-126374285D02*
X145443690Y-126374285D01*
X144919880Y-126255238D02*
X145277023Y-126136190D01*
X145277023Y-126445714D01*
X145396071Y-126636190D02*
X145419880Y-126660000D01*
X145443690Y-126636190D01*
X145419880Y-126612380D01*
X145396071Y-126636190D01*
X145443690Y-126636190D01*
X144943690Y-126969523D02*
X144943690Y-127017142D01*
X144967500Y-127064761D01*
X144991309Y-127088571D01*
X145038928Y-127112380D01*
X145134166Y-127136190D01*
X145253214Y-127136190D01*
X145348452Y-127112380D01*
X145396071Y-127088571D01*
X145419880Y-127064761D01*
X145443690Y-127017142D01*
X145443690Y-126969523D01*
X145419880Y-126921904D01*
X145396071Y-126898095D01*
X145348452Y-126874285D01*
X145253214Y-126850476D01*
X145134166Y-126850476D01*
X145038928Y-126874285D01*
X144991309Y-126898095D01*
X144967500Y-126921904D01*
X144943690Y-126969523D01*
X146368690Y-119671904D02*
X146868690Y-119790952D01*
X146511547Y-119886190D01*
X146868690Y-119981428D01*
X146368690Y-120100476D01*
X146868690Y-120290952D02*
X146535357Y-120290952D01*
X146368690Y-120290952D02*
X146392500Y-120267142D01*
X146416309Y-120290952D01*
X146392500Y-120314761D01*
X146368690Y-120290952D01*
X146416309Y-120290952D01*
X146868690Y-120529047D02*
X146535357Y-120529047D01*
X146368690Y-120529047D02*
X146392500Y-120505238D01*
X146416309Y-120529047D01*
X146392500Y-120552857D01*
X146368690Y-120529047D01*
X146416309Y-120529047D01*
X146868690Y-120767142D02*
X146535357Y-120767142D01*
X146582976Y-120767142D02*
X146559166Y-120790952D01*
X146535357Y-120838571D01*
X146535357Y-120910000D01*
X146559166Y-120957619D01*
X146606785Y-120981428D01*
X146868690Y-120981428D01*
X146606785Y-120981428D02*
X146559166Y-121005238D01*
X146535357Y-121052857D01*
X146535357Y-121124285D01*
X146559166Y-121171904D01*
X146606785Y-121195714D01*
X146868690Y-121195714D01*
X146868690Y-121505238D02*
X146844880Y-121457619D01*
X146821071Y-121433809D01*
X146773452Y-121410000D01*
X146630595Y-121410000D01*
X146582976Y-121433809D01*
X146559166Y-121457619D01*
X146535357Y-121505238D01*
X146535357Y-121576666D01*
X146559166Y-121624285D01*
X146582976Y-121648095D01*
X146630595Y-121671904D01*
X146773452Y-121671904D01*
X146821071Y-121648095D01*
X146844880Y-121624285D01*
X146868690Y-121576666D01*
X146868690Y-121505238D01*
X146535357Y-121814761D02*
X146535357Y-122005238D01*
X146368690Y-121886190D02*
X146797261Y-121886190D01*
X146844880Y-121910000D01*
X146868690Y-121957619D01*
X146868690Y-122005238D01*
X146844880Y-122362380D02*
X146868690Y-122314761D01*
X146868690Y-122219523D01*
X146844880Y-122171904D01*
X146797261Y-122148095D01*
X146606785Y-122148095D01*
X146559166Y-122171904D01*
X146535357Y-122219523D01*
X146535357Y-122314761D01*
X146559166Y-122362380D01*
X146606785Y-122386190D01*
X146654404Y-122386190D01*
X146702023Y-122148095D01*
X146868690Y-122981428D02*
X146368690Y-122981428D01*
X146868690Y-123505238D02*
X146630595Y-123338571D01*
X146868690Y-123219523D02*
X146368690Y-123219523D01*
X146368690Y-123410000D01*
X146392500Y-123457619D01*
X146416309Y-123481428D01*
X146463928Y-123505238D01*
X146535357Y-123505238D01*
X146582976Y-123481428D01*
X146606785Y-123457619D01*
X146630595Y-123410000D01*
X146630595Y-123219523D01*
X146844880Y-124314761D02*
X146868690Y-124267142D01*
X146868690Y-124171904D01*
X146844880Y-124124285D01*
X146821071Y-124100476D01*
X146773452Y-124076666D01*
X146630595Y-124076666D01*
X146582976Y-124100476D01*
X146559166Y-124124285D01*
X146535357Y-124171904D01*
X146535357Y-124267142D01*
X146559166Y-124314761D01*
X146868690Y-124743333D02*
X146606785Y-124743333D01*
X146559166Y-124719523D01*
X146535357Y-124671904D01*
X146535357Y-124576666D01*
X146559166Y-124529047D01*
X146844880Y-124743333D02*
X146868690Y-124695714D01*
X146868690Y-124576666D01*
X146844880Y-124529047D01*
X146797261Y-124505238D01*
X146749642Y-124505238D01*
X146702023Y-124529047D01*
X146678214Y-124576666D01*
X146678214Y-124695714D01*
X146654404Y-124743333D01*
X146868690Y-124981428D02*
X146535357Y-124981428D01*
X146582976Y-124981428D02*
X146559166Y-125005238D01*
X146535357Y-125052857D01*
X146535357Y-125124285D01*
X146559166Y-125171904D01*
X146606785Y-125195714D01*
X146868690Y-125195714D01*
X146606785Y-125195714D02*
X146559166Y-125219523D01*
X146535357Y-125267142D01*
X146535357Y-125338571D01*
X146559166Y-125386190D01*
X146606785Y-125410000D01*
X146868690Y-125410000D01*
X146844880Y-125838571D02*
X146868690Y-125790952D01*
X146868690Y-125695714D01*
X146844880Y-125648095D01*
X146797261Y-125624285D01*
X146606785Y-125624285D01*
X146559166Y-125648095D01*
X146535357Y-125695714D01*
X146535357Y-125790952D01*
X146559166Y-125838571D01*
X146606785Y-125862380D01*
X146654404Y-125862380D01*
X146702023Y-125624285D01*
X146868690Y-126076666D02*
X146535357Y-126076666D01*
X146630595Y-126076666D02*
X146582976Y-126100476D01*
X146559166Y-126124285D01*
X146535357Y-126171904D01*
X146535357Y-126219523D01*
X146868690Y-126600476D02*
X146606785Y-126600476D01*
X146559166Y-126576666D01*
X146535357Y-126529047D01*
X146535357Y-126433809D01*
X146559166Y-126386190D01*
X146844880Y-126600476D02*
X146868690Y-126552857D01*
X146868690Y-126433809D01*
X146844880Y-126386190D01*
X146797261Y-126362380D01*
X146749642Y-126362380D01*
X146702023Y-126386190D01*
X146678214Y-126433809D01*
X146678214Y-126552857D01*
X146654404Y-126600476D01*
X146868690Y-127219523D02*
X146368690Y-127219523D01*
X146559166Y-127219523D02*
X146535357Y-127267142D01*
X146535357Y-127362380D01*
X146559166Y-127410000D01*
X146582976Y-127433809D01*
X146630595Y-127457619D01*
X146773452Y-127457619D01*
X146821071Y-127433809D01*
X146844880Y-127410000D01*
X146868690Y-127362380D01*
X146868690Y-127267142D01*
X146844880Y-127219523D01*
X146868690Y-127743333D02*
X146844880Y-127695714D01*
X146821071Y-127671904D01*
X146773452Y-127648095D01*
X146630595Y-127648095D01*
X146582976Y-127671904D01*
X146559166Y-127695714D01*
X146535357Y-127743333D01*
X146535357Y-127814761D01*
X146559166Y-127862380D01*
X146582976Y-127886190D01*
X146630595Y-127910000D01*
X146773452Y-127910000D01*
X146821071Y-127886190D01*
X146844880Y-127862380D01*
X146868690Y-127814761D01*
X146868690Y-127743333D01*
X146868690Y-128338571D02*
X146606785Y-128338571D01*
X146559166Y-128314761D01*
X146535357Y-128267142D01*
X146535357Y-128171904D01*
X146559166Y-128124285D01*
X146844880Y-128338571D02*
X146868690Y-128290952D01*
X146868690Y-128171904D01*
X146844880Y-128124285D01*
X146797261Y-128100476D01*
X146749642Y-128100476D01*
X146702023Y-128124285D01*
X146678214Y-128171904D01*
X146678214Y-128290952D01*
X146654404Y-128338571D01*
X146868690Y-128576666D02*
X146535357Y-128576666D01*
X146630595Y-128576666D02*
X146582976Y-128600476D01*
X146559166Y-128624285D01*
X146535357Y-128671904D01*
X146535357Y-128719523D01*
X146868690Y-129100476D02*
X146368690Y-129100476D01*
X146844880Y-129100476D02*
X146868690Y-129052857D01*
X146868690Y-128957619D01*
X146844880Y-128910000D01*
X146821071Y-128886190D01*
X146773452Y-128862380D01*
X146630595Y-128862380D01*
X146582976Y-128886190D01*
X146559166Y-128910000D01*
X146535357Y-128957619D01*
X146535357Y-129052857D01*
X146559166Y-129100476D01*
X147243690Y-120957619D02*
X147243690Y-121052857D01*
X147267500Y-121100476D01*
X147315119Y-121148095D01*
X147410357Y-121171904D01*
X147577023Y-121171904D01*
X147672261Y-121148095D01*
X147719880Y-121100476D01*
X147743690Y-121052857D01*
X147743690Y-120957619D01*
X147719880Y-120910000D01*
X147672261Y-120862380D01*
X147577023Y-120838571D01*
X147410357Y-120838571D01*
X147315119Y-120862380D01*
X147267500Y-120910000D01*
X147243690Y-120957619D01*
X147743690Y-121386190D02*
X147410357Y-121386190D01*
X147505595Y-121386190D02*
X147457976Y-121410000D01*
X147434166Y-121433809D01*
X147410357Y-121481428D01*
X147410357Y-121529047D01*
X147743690Y-121695714D02*
X147410357Y-121695714D01*
X147243690Y-121695714D02*
X147267500Y-121671904D01*
X147291309Y-121695714D01*
X147267500Y-121719523D01*
X147243690Y-121695714D01*
X147291309Y-121695714D01*
X147410357Y-122148095D02*
X147815119Y-122148095D01*
X147862738Y-122124285D01*
X147886547Y-122100476D01*
X147910357Y-122052857D01*
X147910357Y-121981428D01*
X147886547Y-121933809D01*
X147719880Y-122148095D02*
X147743690Y-122100476D01*
X147743690Y-122005238D01*
X147719880Y-121957619D01*
X147696071Y-121933809D01*
X147648452Y-121910000D01*
X147505595Y-121910000D01*
X147457976Y-121933809D01*
X147434166Y-121957619D01*
X147410357Y-122005238D01*
X147410357Y-122100476D01*
X147434166Y-122148095D01*
X147743690Y-122386190D02*
X147410357Y-122386190D01*
X147243690Y-122386190D02*
X147267500Y-122362380D01*
X147291309Y-122386190D01*
X147267500Y-122410000D01*
X147243690Y-122386190D01*
X147291309Y-122386190D01*
X147410357Y-122624285D02*
X147743690Y-122624285D01*
X147457976Y-122624285D02*
X147434166Y-122648095D01*
X147410357Y-122695714D01*
X147410357Y-122767142D01*
X147434166Y-122814761D01*
X147481785Y-122838571D01*
X147743690Y-122838571D01*
X147743690Y-123290952D02*
X147481785Y-123290952D01*
X147434166Y-123267142D01*
X147410357Y-123219523D01*
X147410357Y-123124285D01*
X147434166Y-123076666D01*
X147719880Y-123290952D02*
X147743690Y-123243333D01*
X147743690Y-123124285D01*
X147719880Y-123076666D01*
X147672261Y-123052857D01*
X147624642Y-123052857D01*
X147577023Y-123076666D01*
X147553214Y-123124285D01*
X147553214Y-123243333D01*
X147529404Y-123290952D01*
X147743690Y-123600476D02*
X147719880Y-123552857D01*
X147672261Y-123529047D01*
X147243690Y-123529047D01*
X147743690Y-124386190D02*
X147243690Y-124386190D01*
X147719880Y-124386190D02*
X147743690Y-124338571D01*
X147743690Y-124243333D01*
X147719880Y-124195714D01*
X147696071Y-124171904D01*
X147648452Y-124148095D01*
X147505595Y-124148095D01*
X147457976Y-124171904D01*
X147434166Y-124195714D01*
X147410357Y-124243333D01*
X147410357Y-124338571D01*
X147434166Y-124386190D01*
X147719880Y-124814761D02*
X147743690Y-124767142D01*
X147743690Y-124671904D01*
X147719880Y-124624285D01*
X147672261Y-124600476D01*
X147481785Y-124600476D01*
X147434166Y-124624285D01*
X147410357Y-124671904D01*
X147410357Y-124767142D01*
X147434166Y-124814761D01*
X147481785Y-124838571D01*
X147529404Y-124838571D01*
X147577023Y-124600476D01*
X147719880Y-125029047D02*
X147743690Y-125076666D01*
X147743690Y-125171904D01*
X147719880Y-125219523D01*
X147672261Y-125243333D01*
X147648452Y-125243333D01*
X147600833Y-125219523D01*
X147577023Y-125171904D01*
X147577023Y-125100476D01*
X147553214Y-125052857D01*
X147505595Y-125029047D01*
X147481785Y-125029047D01*
X147434166Y-125052857D01*
X147410357Y-125100476D01*
X147410357Y-125171904D01*
X147434166Y-125219523D01*
X147743690Y-125457619D02*
X147410357Y-125457619D01*
X147243690Y-125457619D02*
X147267500Y-125433809D01*
X147291309Y-125457619D01*
X147267500Y-125481428D01*
X147243690Y-125457619D01*
X147291309Y-125457619D01*
X147410357Y-125910000D02*
X147815119Y-125910000D01*
X147862738Y-125886190D01*
X147886547Y-125862380D01*
X147910357Y-125814761D01*
X147910357Y-125743333D01*
X147886547Y-125695714D01*
X147719880Y-125910000D02*
X147743690Y-125862380D01*
X147743690Y-125767142D01*
X147719880Y-125719523D01*
X147696071Y-125695714D01*
X147648452Y-125671904D01*
X147505595Y-125671904D01*
X147457976Y-125695714D01*
X147434166Y-125719523D01*
X147410357Y-125767142D01*
X147410357Y-125862380D01*
X147434166Y-125910000D01*
X147410357Y-126148095D02*
X147743690Y-126148095D01*
X147457976Y-126148095D02*
X147434166Y-126171904D01*
X147410357Y-126219523D01*
X147410357Y-126290952D01*
X147434166Y-126338571D01*
X147481785Y-126362380D01*
X147743690Y-126362380D01*
X147743690Y-126981428D02*
X147243690Y-126981428D01*
X147434166Y-126981428D02*
X147410357Y-127029047D01*
X147410357Y-127124285D01*
X147434166Y-127171904D01*
X147457976Y-127195714D01*
X147505595Y-127219523D01*
X147648452Y-127219523D01*
X147696071Y-127195714D01*
X147719880Y-127171904D01*
X147743690Y-127124285D01*
X147743690Y-127029047D01*
X147719880Y-126981428D01*
X147410357Y-127386190D02*
X147743690Y-127505238D01*
X147410357Y-127624285D02*
X147743690Y-127505238D01*
X147862738Y-127457619D01*
X147886547Y-127433809D01*
X147910357Y-127386190D01*
X148618690Y-119588571D02*
X148118690Y-119588571D01*
X148475833Y-119755238D01*
X148118690Y-119921904D01*
X148618690Y-119921904D01*
X148285357Y-120112380D02*
X148618690Y-120231428D01*
X148285357Y-120350476D02*
X148618690Y-120231428D01*
X148737738Y-120183809D01*
X148761547Y-120160000D01*
X148785357Y-120112380D01*
X148594880Y-120517142D02*
X148618690Y-120564761D01*
X148618690Y-120660000D01*
X148594880Y-120707619D01*
X148547261Y-120731428D01*
X148523452Y-120731428D01*
X148475833Y-120707619D01*
X148452023Y-120660000D01*
X148452023Y-120588571D01*
X148428214Y-120540952D01*
X148380595Y-120517142D01*
X148356785Y-120517142D01*
X148309166Y-120540952D01*
X148285357Y-120588571D01*
X148285357Y-120660000D01*
X148309166Y-120707619D01*
X148618690Y-121017142D02*
X148594880Y-120969523D01*
X148547261Y-120945714D01*
X148118690Y-120945714D01*
X148618690Y-121207619D02*
X148285357Y-121207619D01*
X148118690Y-121207619D02*
X148142500Y-121183809D01*
X148166309Y-121207619D01*
X148142500Y-121231428D01*
X148118690Y-121207619D01*
X148166309Y-121207619D01*
X148118690Y-121540952D02*
X148118690Y-121588571D01*
X148142500Y-121636190D01*
X148166309Y-121660000D01*
X148213928Y-121683809D01*
X148309166Y-121707619D01*
X148428214Y-121707619D01*
X148523452Y-121683809D01*
X148571071Y-121660000D01*
X148594880Y-121636190D01*
X148618690Y-121588571D01*
X148618690Y-121540952D01*
X148594880Y-121493333D01*
X148571071Y-121469523D01*
X148523452Y-121445714D01*
X148428214Y-121421904D01*
X148309166Y-121421904D01*
X148213928Y-121445714D01*
X148166309Y-121469523D01*
X148142500Y-121493333D01*
X148118690Y-121540952D01*
X148166309Y-121898095D02*
X148142500Y-121921904D01*
X148118690Y-121969523D01*
X148118690Y-122088571D01*
X148142500Y-122136190D01*
X148166309Y-122160000D01*
X148213928Y-122183809D01*
X148261547Y-122183809D01*
X148332976Y-122160000D01*
X148618690Y-121874285D01*
X148618690Y-122183809D01*
X148618690Y-122660000D02*
X148618690Y-122374285D01*
X148618690Y-122517142D02*
X148118690Y-122517142D01*
X148190119Y-122469523D01*
X148237738Y-122421904D01*
X148261547Y-122374285D01*
X148118690Y-122969523D02*
X148118690Y-123017142D01*
X148142500Y-123064761D01*
X148166309Y-123088571D01*
X148213928Y-123112380D01*
X148309166Y-123136190D01*
X148428214Y-123136190D01*
X148523452Y-123112380D01*
X148571071Y-123088571D01*
X148594880Y-123064761D01*
X148618690Y-123017142D01*
X148618690Y-122969523D01*
X148594880Y-122921904D01*
X148571071Y-122898095D01*
X148523452Y-122874285D01*
X148428214Y-122850476D01*
X148309166Y-122850476D01*
X148213928Y-122874285D01*
X148166309Y-122898095D01*
X148142500Y-122921904D01*
X148118690Y-122969523D01*
X148618690Y-123802857D02*
X148594880Y-123755238D01*
X148571071Y-123731428D01*
X148523452Y-123707619D01*
X148380595Y-123707619D01*
X148332976Y-123731428D01*
X148309166Y-123755238D01*
X148285357Y-123802857D01*
X148285357Y-123874285D01*
X148309166Y-123921904D01*
X148332976Y-123945714D01*
X148380595Y-123969523D01*
X148523452Y-123969523D01*
X148571071Y-123945714D01*
X148594880Y-123921904D01*
X148618690Y-123874285D01*
X148618690Y-123802857D01*
X148285357Y-124112380D02*
X148285357Y-124302857D01*
X148618690Y-124183809D02*
X148190119Y-124183809D01*
X148142500Y-124207619D01*
X148118690Y-124255238D01*
X148118690Y-124302857D01*
X148118690Y-124945714D02*
X148118690Y-125040952D01*
X148142500Y-125088571D01*
X148190119Y-125136190D01*
X148285357Y-125160000D01*
X148452023Y-125160000D01*
X148547261Y-125136190D01*
X148594880Y-125088571D01*
X148618690Y-125040952D01*
X148618690Y-124945714D01*
X148594880Y-124898095D01*
X148547261Y-124850476D01*
X148452023Y-124826666D01*
X148285357Y-124826666D01*
X148190119Y-124850476D01*
X148142500Y-124898095D01*
X148118690Y-124945714D01*
X148618690Y-125374285D02*
X148118690Y-125374285D01*
X148618690Y-125660000D02*
X148332976Y-125445714D01*
X148118690Y-125660000D02*
X148404404Y-125374285D01*
X148618690Y-125874285D02*
X148118690Y-125874285D01*
X148618690Y-126160000D02*
X148332976Y-125945714D01*
X148118690Y-126160000D02*
X148404404Y-125874285D01*
X148428214Y-126374285D02*
X148428214Y-126755238D01*
X148618690Y-126993333D02*
X148118690Y-126993333D01*
X148118690Y-127112380D01*
X148142500Y-127183809D01*
X148190119Y-127231428D01*
X148237738Y-127255238D01*
X148332976Y-127279047D01*
X148404404Y-127279047D01*
X148499642Y-127255238D01*
X148547261Y-127231428D01*
X148594880Y-127183809D01*
X148618690Y-127112380D01*
X148618690Y-126993333D01*
X148594880Y-127683809D02*
X148618690Y-127636190D01*
X148618690Y-127540952D01*
X148594880Y-127493333D01*
X148547261Y-127469523D01*
X148356785Y-127469523D01*
X148309166Y-127493333D01*
X148285357Y-127540952D01*
X148285357Y-127636190D01*
X148309166Y-127683809D01*
X148356785Y-127707619D01*
X148404404Y-127707619D01*
X148452023Y-127469523D01*
X148594880Y-127898095D02*
X148618690Y-127945714D01*
X148618690Y-128040952D01*
X148594880Y-128088571D01*
X148547261Y-128112380D01*
X148523452Y-128112380D01*
X148475833Y-128088571D01*
X148452023Y-128040952D01*
X148452023Y-127969523D01*
X148428214Y-127921904D01*
X148380595Y-127898095D01*
X148356785Y-127898095D01*
X148309166Y-127921904D01*
X148285357Y-127969523D01*
X148285357Y-128040952D01*
X148309166Y-128088571D01*
X148618690Y-128326666D02*
X148285357Y-128326666D01*
X148118690Y-128326666D02*
X148142500Y-128302857D01*
X148166309Y-128326666D01*
X148142500Y-128350476D01*
X148118690Y-128326666D01*
X148166309Y-128326666D01*
X148285357Y-128779047D02*
X148690119Y-128779047D01*
X148737738Y-128755238D01*
X148761547Y-128731428D01*
X148785357Y-128683809D01*
X148785357Y-128612380D01*
X148761547Y-128564761D01*
X148594880Y-128779047D02*
X148618690Y-128731428D01*
X148618690Y-128636190D01*
X148594880Y-128588571D01*
X148571071Y-128564761D01*
X148523452Y-128540952D01*
X148380595Y-128540952D01*
X148332976Y-128564761D01*
X148309166Y-128588571D01*
X148285357Y-128636190D01*
X148285357Y-128731428D01*
X148309166Y-128779047D01*
X148285357Y-129017142D02*
X148618690Y-129017142D01*
X148332976Y-129017142D02*
X148309166Y-129040952D01*
X148285357Y-129088571D01*
X148285357Y-129160000D01*
X148309166Y-129207619D01*
X148356785Y-129231428D01*
X148618690Y-129231428D01*
X149469880Y-120981428D02*
X149493690Y-121052857D01*
X149493690Y-121171904D01*
X149469880Y-121219523D01*
X149446071Y-121243333D01*
X149398452Y-121267142D01*
X149350833Y-121267142D01*
X149303214Y-121243333D01*
X149279404Y-121219523D01*
X149255595Y-121171904D01*
X149231785Y-121076666D01*
X149207976Y-121029047D01*
X149184166Y-121005238D01*
X149136547Y-120981428D01*
X149088928Y-120981428D01*
X149041309Y-121005238D01*
X149017500Y-121029047D01*
X148993690Y-121076666D01*
X148993690Y-121195714D01*
X149017500Y-121267142D01*
X149493690Y-121481428D02*
X148993690Y-121481428D01*
X149350833Y-121648095D01*
X148993690Y-121814761D01*
X149493690Y-121814761D01*
X149493690Y-122052857D02*
X148993690Y-122052857D01*
X148993690Y-122171904D01*
X149017500Y-122243333D01*
X149065119Y-122290952D01*
X149112738Y-122314761D01*
X149207976Y-122338571D01*
X149279404Y-122338571D01*
X149374642Y-122314761D01*
X149422261Y-122290952D01*
X149469880Y-122243333D01*
X149493690Y-122171904D01*
X149493690Y-122052857D01*
X149160357Y-123148095D02*
X149493690Y-123148095D01*
X149160357Y-122933809D02*
X149422261Y-122933809D01*
X149469880Y-122957619D01*
X149493690Y-123005238D01*
X149493690Y-123076666D01*
X149469880Y-123124285D01*
X149446071Y-123148095D01*
X149160357Y-123386190D02*
X149660357Y-123386190D01*
X149184166Y-123386190D02*
X149160357Y-123433809D01*
X149160357Y-123529047D01*
X149184166Y-123576666D01*
X149207976Y-123600476D01*
X149255595Y-123624285D01*
X149398452Y-123624285D01*
X149446071Y-123600476D01*
X149469880Y-123576666D01*
X149493690Y-123529047D01*
X149493690Y-123433809D01*
X149469880Y-123386190D01*
X149493690Y-124052857D02*
X148993690Y-124052857D01*
X149469880Y-124052857D02*
X149493690Y-124005238D01*
X149493690Y-123910000D01*
X149469880Y-123862380D01*
X149446071Y-123838571D01*
X149398452Y-123814761D01*
X149255595Y-123814761D01*
X149207976Y-123838571D01*
X149184166Y-123862380D01*
X149160357Y-123910000D01*
X149160357Y-124005238D01*
X149184166Y-124052857D01*
X149493690Y-124505238D02*
X149231785Y-124505238D01*
X149184166Y-124481428D01*
X149160357Y-124433809D01*
X149160357Y-124338571D01*
X149184166Y-124290952D01*
X149469880Y-124505238D02*
X149493690Y-124457619D01*
X149493690Y-124338571D01*
X149469880Y-124290952D01*
X149422261Y-124267142D01*
X149374642Y-124267142D01*
X149327023Y-124290952D01*
X149303214Y-124338571D01*
X149303214Y-124457619D01*
X149279404Y-124505238D01*
X149160357Y-124671904D02*
X149160357Y-124862380D01*
X148993690Y-124743333D02*
X149422261Y-124743333D01*
X149469880Y-124767142D01*
X149493690Y-124814761D01*
X149493690Y-124862380D01*
X149469880Y-125219523D02*
X149493690Y-125171904D01*
X149493690Y-125076666D01*
X149469880Y-125029047D01*
X149422261Y-125005238D01*
X149231785Y-125005238D01*
X149184166Y-125029047D01*
X149160357Y-125076666D01*
X149160357Y-125171904D01*
X149184166Y-125219523D01*
X149231785Y-125243333D01*
X149279404Y-125243333D01*
X149327023Y-125005238D01*
X149493690Y-125838571D02*
X148993690Y-125838571D01*
X149184166Y-125838571D02*
X149160357Y-125886190D01*
X149160357Y-125981428D01*
X149184166Y-126029047D01*
X149207976Y-126052857D01*
X149255595Y-126076666D01*
X149398452Y-126076666D01*
X149446071Y-126052857D01*
X149469880Y-126029047D01*
X149493690Y-125981428D01*
X149493690Y-125886190D01*
X149469880Y-125838571D01*
X149160357Y-126243333D02*
X149493690Y-126362380D01*
X149160357Y-126481428D02*
X149493690Y-126362380D01*
X149612738Y-126314761D01*
X149636547Y-126290952D01*
X149660357Y-126243333D01*
X149493690Y-127052857D02*
X148993690Y-127052857D01*
X148993690Y-127243333D01*
X149017500Y-127290952D01*
X149041309Y-127314761D01*
X149088928Y-127338571D01*
X149160357Y-127338571D01*
X149207976Y-127314761D01*
X149231785Y-127290952D01*
X149255595Y-127243333D01*
X149255595Y-127052857D01*
X149231785Y-127719523D02*
X149255595Y-127790952D01*
X149279404Y-127814761D01*
X149327023Y-127838571D01*
X149398452Y-127838571D01*
X149446071Y-127814761D01*
X149469880Y-127790952D01*
X149493690Y-127743333D01*
X149493690Y-127552857D01*
X148993690Y-127552857D01*
X148993690Y-127719523D01*
X149017500Y-127767142D01*
X149041309Y-127790952D01*
X149088928Y-127814761D01*
X149136547Y-127814761D01*
X149184166Y-127790952D01*
X149207976Y-127767142D01*
X149231785Y-127719523D01*
X149231785Y-127552857D01*
D11*
X159243752Y-121970000D02*
X158721248Y-121970000D01*
X159243752Y-120500000D02*
X158721248Y-120500000D01*
X155675000Y-125941252D02*
X155675000Y-125418748D01*
X154205000Y-125941252D02*
X154205000Y-125418748D01*
X150649000Y-124184752D02*
X150649000Y-123662248D01*
X152119000Y-124184752D02*
X152119000Y-123662248D01*
X160550000Y-123370000D02*
X160550000Y-122980000D01*
X160550000Y-122980000D02*
X156950000Y-122980000D01*
X156950000Y-122980000D02*
X156950000Y-123370000D01*
X160550000Y-126050000D02*
X160550000Y-125310000D01*
X156250000Y-127990000D02*
X156950000Y-127990000D01*
X156950000Y-127990000D02*
X156950000Y-128380000D01*
X156950000Y-128380000D02*
X160550000Y-128380000D01*
X160550000Y-128380000D02*
X160550000Y-127990000D01*
X156950000Y-125310000D02*
X156950000Y-126050000D01*
X156950000Y-126050000D02*
X156250000Y-126050000D01*
D12*
X162726666Y-121592142D02*
X162774285Y-121639761D01*
X162917142Y-121687380D01*
X163012380Y-121687380D01*
X163155238Y-121639761D01*
X163250476Y-121544523D01*
X163298095Y-121449285D01*
X163345714Y-121258809D01*
X163345714Y-121115952D01*
X163298095Y-120925476D01*
X163250476Y-120830238D01*
X163155238Y-120735000D01*
X163012380Y-120687380D01*
X162917142Y-120687380D01*
X162774285Y-120735000D01*
X162726666Y-120782619D01*
X161869523Y-121020714D02*
X161869523Y-121687380D01*
X162107619Y-120639761D02*
X162345714Y-121354047D01*
X161726666Y-121354047D01*
X155297142Y-122465333D02*
X155344761Y-122417714D01*
X155392380Y-122274857D01*
X155392380Y-122179619D01*
X155344761Y-122036761D01*
X155249523Y-121941523D01*
X155154285Y-121893904D01*
X154963809Y-121846285D01*
X154820952Y-121846285D01*
X154630476Y-121893904D01*
X154535238Y-121941523D01*
X154440000Y-122036761D01*
X154392380Y-122179619D01*
X154392380Y-122274857D01*
X154440000Y-122417714D01*
X154487619Y-122465333D01*
X154392380Y-122798666D02*
X154392380Y-123417714D01*
X154773333Y-123084380D01*
X154773333Y-123227238D01*
X154820952Y-123322476D01*
X154868571Y-123370095D01*
X154963809Y-123417714D01*
X155201904Y-123417714D01*
X155297142Y-123370095D01*
X155344761Y-123322476D01*
X155392380Y-123227238D01*
X155392380Y-122941523D01*
X155344761Y-122846285D01*
X155297142Y-122798666D01*
X151741142Y-120687333D02*
X151788761Y-120639714D01*
X151836380Y-120496857D01*
X151836380Y-120401619D01*
X151788761Y-120258761D01*
X151693523Y-120163523D01*
X151598285Y-120115904D01*
X151407809Y-120068285D01*
X151264952Y-120068285D01*
X151074476Y-120115904D01*
X150979238Y-120163523D01*
X150884000Y-120258761D01*
X150836380Y-120401619D01*
X150836380Y-120496857D01*
X150884000Y-120639714D01*
X150931619Y-120687333D01*
X150931619Y-121068285D02*
X150884000Y-121115904D01*
X150836380Y-121211142D01*
X150836380Y-121449238D01*
X150884000Y-121544476D01*
X150931619Y-121592095D01*
X151026857Y-121639714D01*
X151122095Y-121639714D01*
X151264952Y-121592095D01*
X151836380Y-121020666D01*
X151836380Y-121639714D01*
X145113333Y-119036380D02*
X145113333Y-119750666D01*
X145160952Y-119893523D01*
X145256190Y-119988761D01*
X145399047Y-120036380D01*
X145494285Y-120036380D01*
X144113333Y-120036380D02*
X144684761Y-120036380D01*
X144399047Y-120036380D02*
X144399047Y-119036380D01*
X144494285Y-119179238D01*
X144589523Y-119274476D01*
X144684761Y-119322095D01*
X161502380Y-124870476D02*
X162502380Y-125537142D01*
X161502380Y-125537142D02*
X162502380Y-124870476D01*
X162502380Y-126441904D02*
X162502380Y-125870476D01*
X162502380Y-126156190D02*
X161502380Y-126156190D01*
X161645238Y-126060952D01*
X161740476Y-125965714D01*
X161788095Y-125870476D01*
%LPC*%
G36*
G01*
X160658500Y-120730702D02*
X160658500Y-121739298D01*
G75*
G02*
X160386798Y-122011000I-271702J0D01*
G01*
X159653202Y-122011000D01*
G75*
G02*
X159381500Y-121739298I0J271702D01*
G01*
X159381500Y-120730702D01*
G75*
G02*
X159653202Y-120459000I271702J0D01*
G01*
X160386798Y-120459000D01*
G75*
G02*
X160658500Y-120730702I0J-271702D01*
G01*
G37*
G36*
G01*
X158583500Y-120730702D02*
X158583500Y-121739298D01*
G75*
G02*
X158311798Y-122011000I-271702J0D01*
G01*
X157578202Y-122011000D01*
G75*
G02*
X157306500Y-121739298I0J271702D01*
G01*
X157306500Y-120730702D01*
G75*
G02*
X157578202Y-120459000I271702J0D01*
G01*
X158311798Y-120459000D01*
G75*
G02*
X158583500Y-120730702I0J-271702D01*
G01*
G37*
G36*
G01*
X155444298Y-125281000D02*
X154435702Y-125281000D01*
G75*
G02*
X154164000Y-125009298I0J271702D01*
G01*
X154164000Y-124275702D01*
G75*
G02*
X154435702Y-124004000I271702J0D01*
G01*
X155444298Y-124004000D01*
G75*
G02*
X155716000Y-124275702I0J-271702D01*
G01*
X155716000Y-125009298D01*
G75*
G02*
X155444298Y-125281000I-271702J0D01*
G01*
G37*
G36*
G01*
X155444298Y-127356000D02*
X154435702Y-127356000D01*
G75*
G02*
X154164000Y-127084298I0J271702D01*
G01*
X154164000Y-126350702D01*
G75*
G02*
X154435702Y-126079000I271702J0D01*
G01*
X155444298Y-126079000D01*
G75*
G02*
X155716000Y-126350702I0J-271702D01*
G01*
X155716000Y-127084298D01*
G75*
G02*
X155444298Y-127356000I-271702J0D01*
G01*
G37*
G36*
G01*
X151888298Y-125599500D02*
X150879702Y-125599500D01*
G75*
G02*
X150608000Y-125327798I0J271702D01*
G01*
X150608000Y-124594202D01*
G75*
G02*
X150879702Y-124322500I271702J0D01*
G01*
X151888298Y-124322500D01*
G75*
G02*
X152160000Y-124594202I0J-271702D01*
G01*
X152160000Y-125327798D01*
G75*
G02*
X151888298Y-125599500I-271702J0D01*
G01*
G37*
G36*
G01*
X151888298Y-123524500D02*
X150879702Y-123524500D01*
G75*
G02*
X150608000Y-123252798I0J271702D01*
G01*
X150608000Y-122519202D01*
G75*
G02*
X150879702Y-122247500I271702J0D01*
G01*
X151888298Y-122247500D01*
G75*
G02*
X152160000Y-122519202I0J-271702D01*
G01*
X152160000Y-123252798D01*
G75*
G02*
X151888298Y-123524500I-271702J0D01*
G01*
G37*
D13*
X142875000Y-120600000D03*
X142875000Y-123140000D03*
X142875000Y-125680000D03*
G36*
G01*
X143776000Y-127370000D02*
X143776000Y-129070000D01*
G75*
G02*
X143725000Y-129121000I-51000J0D01*
G01*
X142025000Y-129121000D01*
G75*
G02*
X141974000Y-129070000I0J51000D01*
G01*
X141974000Y-127370000D01*
G75*
G02*
X142025000Y-127319000I51000J0D01*
G01*
X143725000Y-127319000D01*
G75*
G02*
X143776000Y-127370000I0J-51000D01*
G01*
G37*
G36*
G01*
X161050000Y-127841000D02*
X159250000Y-127841000D01*
G75*
G02*
X159199000Y-127790000I0J51000D01*
G01*
X159199000Y-126250000D01*
G75*
G02*
X159250000Y-126199000I51000J0D01*
G01*
X161050000Y-126199000D01*
G75*
G02*
X161101000Y-126250000I0J-51000D01*
G01*
X161101000Y-127790000D01*
G75*
G02*
X161050000Y-127841000I-51000J0D01*
G01*
G37*
G36*
G01*
X161050000Y-125161000D02*
X159250000Y-125161000D01*
G75*
G02*
X159199000Y-125110000I0J51000D01*
G01*
X159199000Y-123570000D01*
G75*
G02*
X159250000Y-123519000I51000J0D01*
G01*
X161050000Y-123519000D01*
G75*
G02*
X161101000Y-123570000I0J-51000D01*
G01*
X161101000Y-125110000D01*
G75*
G02*
X161050000Y-125161000I-51000J0D01*
G01*
G37*
G36*
G01*
X158250000Y-125161000D02*
X156450000Y-125161000D01*
G75*
G02*
X156399000Y-125110000I0J51000D01*
G01*
X156399000Y-123570000D01*
G75*
G02*
X156450000Y-123519000I51000J0D01*
G01*
X158250000Y-123519000D01*
G75*
G02*
X158301000Y-123570000I0J-51000D01*
G01*
X158301000Y-125110000D01*
G75*
G02*
X158250000Y-125161000I-51000J0D01*
G01*
G37*
G36*
G01*
X158250000Y-127841000D02*
X156450000Y-127841000D01*
G75*
G02*
X156399000Y-127790000I0J51000D01*
G01*
X156399000Y-126250000D01*
G75*
G02*
X156450000Y-126199000I51000J0D01*
G01*
X158250000Y-126199000D01*
G75*
G02*
X158301000Y-126250000I0J-51000D01*
G01*
X158301000Y-127790000D01*
G75*
G02*
X158250000Y-127841000I-51000J0D01*
G01*
G37*
M02*
