%TF.GenerationSoftware,KiCad,Pcbnew,(5.1.12)-1*%
%TF.CreationDate,2022-05-16T22:14:10+01:00*%
%TF.ProjectId,wiicam,77696963-616d-42e6-9b69-6361645f7063,rev?*%
%TF.SameCoordinates,Original*%
%TF.FileFunction,Paste,Bot*%
%TF.FilePolarity,Positive*%
%FSLAX46Y46*%
G04 Gerber Fmt 4.6, Leading zero omitted, Abs format (unit mm)*
G04 Created by KiCad (PCBNEW (5.1.12)-1) date 2022-05-16 22:14:10*
%MOMM*%
%LPD*%
G01*
G04 APERTURE LIST*
%ADD10R,1.800000X1.540000*%
G04 APERTURE END LIST*
G36*
G01*
X155415000Y-125230000D02*
X154465000Y-125230000D01*
G75*
G02*
X154215000Y-124980000I0J250000D01*
G01*
X154215000Y-124305000D01*
G75*
G02*
X154465000Y-124055000I250000J0D01*
G01*
X155415000Y-124055000D01*
G75*
G02*
X155665000Y-124305000I0J-250000D01*
G01*
X155665000Y-124980000D01*
G75*
G02*
X155415000Y-125230000I-250000J0D01*
G01*
G37*
G36*
G01*
X155415000Y-127305000D02*
X154465000Y-127305000D01*
G75*
G02*
X154215000Y-127055000I0J250000D01*
G01*
X154215000Y-126380000D01*
G75*
G02*
X154465000Y-126130000I250000J0D01*
G01*
X155415000Y-126130000D01*
G75*
G02*
X155665000Y-126380000I0J-250000D01*
G01*
X155665000Y-127055000D01*
G75*
G02*
X155415000Y-127305000I-250000J0D01*
G01*
G37*
G36*
G01*
X151859000Y-125548500D02*
X150909000Y-125548500D01*
G75*
G02*
X150659000Y-125298500I0J250000D01*
G01*
X150659000Y-124623500D01*
G75*
G02*
X150909000Y-124373500I250000J0D01*
G01*
X151859000Y-124373500D01*
G75*
G02*
X152109000Y-124623500I0J-250000D01*
G01*
X152109000Y-125298500D01*
G75*
G02*
X151859000Y-125548500I-250000J0D01*
G01*
G37*
G36*
G01*
X151859000Y-123473500D02*
X150909000Y-123473500D01*
G75*
G02*
X150659000Y-123223500I0J250000D01*
G01*
X150659000Y-122548500D01*
G75*
G02*
X150909000Y-122298500I250000J0D01*
G01*
X151859000Y-122298500D01*
G75*
G02*
X152109000Y-122548500I0J-250000D01*
G01*
X152109000Y-123223500D01*
G75*
G02*
X151859000Y-123473500I-250000J0D01*
G01*
G37*
D10*
X160150000Y-127020000D03*
X160150000Y-124340000D03*
X157350000Y-124340000D03*
X157350000Y-127020000D03*
M02*
