%TF.GenerationSoftware,KiCad,Pcbnew,(5.1.12)-1*%
%TF.CreationDate,2022-05-16T22:14:10+01:00*%
%TF.ProjectId,wiicam,77696963-616d-42e6-9b69-6361645f7063,rev?*%
%TF.SameCoordinates,Original*%
%TF.FileFunction,Paste,Top*%
%TF.FilePolarity,Positive*%
%FSLAX46Y46*%
G04 Gerber Fmt 4.6, Leading zero omitted, Abs format (unit mm)*
G04 Created by KiCad (PCBNEW (5.1.12)-1) date 2022-05-16 22:14:10*
%MOMM*%
%LPD*%
G01*
G04 APERTURE LIST*
%ADD10O,2.000000X0.560000*%
%ADD11O,2.000000X0.600000*%
%ADD12R,1.500000X2.000000*%
%ADD13R,3.800000X2.000000*%
G04 APERTURE END LIST*
G36*
G01*
X161255000Y-120784999D02*
X161255000Y-121685001D01*
G75*
G02*
X161005001Y-121935000I-249999J0D01*
G01*
X160304999Y-121935000D01*
G75*
G02*
X160055000Y-121685001I0J249999D01*
G01*
X160055000Y-120784999D01*
G75*
G02*
X160304999Y-120535000I249999J0D01*
G01*
X161005001Y-120535000D01*
G75*
G02*
X161255000Y-120784999I0J-249999D01*
G01*
G37*
G36*
G01*
X159255000Y-120784999D02*
X159255000Y-121685001D01*
G75*
G02*
X159005001Y-121935000I-249999J0D01*
G01*
X158304999Y-121935000D01*
G75*
G02*
X158055000Y-121685001I0J249999D01*
G01*
X158055000Y-120784999D01*
G75*
G02*
X158304999Y-120535000I249999J0D01*
G01*
X159005001Y-120535000D01*
G75*
G02*
X159255000Y-120784999I0J-249999D01*
G01*
G37*
D10*
X164465000Y-121260000D03*
D11*
X164465000Y-122160000D03*
X164465000Y-123060000D03*
X164465000Y-123960000D03*
X164465000Y-124860000D03*
X164465000Y-125760000D03*
X164465000Y-126660000D03*
X164465000Y-127560000D03*
G36*
G01*
X149304500Y-120125000D02*
X149304500Y-121075000D01*
G75*
G02*
X149054500Y-121325000I-250000J0D01*
G01*
X148379500Y-121325000D01*
G75*
G02*
X148129500Y-121075000I0J250000D01*
G01*
X148129500Y-120125000D01*
G75*
G02*
X148379500Y-119875000I250000J0D01*
G01*
X149054500Y-119875000D01*
G75*
G02*
X149304500Y-120125000I0J-250000D01*
G01*
G37*
G36*
G01*
X147229500Y-120125000D02*
X147229500Y-121075000D01*
G75*
G02*
X146979500Y-121325000I-250000J0D01*
G01*
X146304500Y-121325000D01*
G75*
G02*
X146054500Y-121075000I0J250000D01*
G01*
X146054500Y-120125000D01*
G75*
G02*
X146304500Y-119875000I250000J0D01*
G01*
X146979500Y-119875000D01*
G75*
G02*
X147229500Y-120125000I0J-250000D01*
G01*
G37*
G36*
G01*
X145847000Y-126130001D02*
X145847000Y-125229999D01*
G75*
G02*
X146096999Y-124980000I249999J0D01*
G01*
X146797001Y-124980000D01*
G75*
G02*
X147047000Y-125229999I0J-249999D01*
G01*
X147047000Y-126130001D01*
G75*
G02*
X146797001Y-126380000I-249999J0D01*
G01*
X146096999Y-126380000D01*
G75*
G02*
X145847000Y-126130001I0J249999D01*
G01*
G37*
G36*
G01*
X147847000Y-126130001D02*
X147847000Y-125229999D01*
G75*
G02*
X148096999Y-124980000I249999J0D01*
G01*
X148797001Y-124980000D01*
G75*
G02*
X149047000Y-125229999I0J-249999D01*
G01*
X149047000Y-126130001D01*
G75*
G02*
X148797001Y-126380000I-249999J0D01*
G01*
X148096999Y-126380000D01*
G75*
G02*
X147847000Y-126130001I0J249999D01*
G01*
G37*
G36*
G01*
X147847000Y-128670001D02*
X147847000Y-127769999D01*
G75*
G02*
X148096999Y-127520000I249999J0D01*
G01*
X148797001Y-127520000D01*
G75*
G02*
X149047000Y-127769999I0J-249999D01*
G01*
X149047000Y-128670001D01*
G75*
G02*
X148797001Y-128920000I-249999J0D01*
G01*
X148096999Y-128920000D01*
G75*
G02*
X147847000Y-128670001I0J249999D01*
G01*
G37*
G36*
G01*
X145847000Y-128670001D02*
X145847000Y-127769999D01*
G75*
G02*
X146096999Y-127520000I249999J0D01*
G01*
X146797001Y-127520000D01*
G75*
G02*
X147047000Y-127769999I0J-249999D01*
G01*
X147047000Y-128670001D01*
G75*
G02*
X146797001Y-128920000I-249999J0D01*
G01*
X146096999Y-128920000D01*
G75*
G02*
X145847000Y-128670001I0J249999D01*
G01*
G37*
D12*
X155462000Y-120625000D03*
X150862000Y-120625000D03*
X153162000Y-120625000D03*
D13*
X153162000Y-126925000D03*
M02*
