%TF.GenerationSoftware,KiCad,Pcbnew,(5.1.12)-1*%
%TF.CreationDate,2022-05-16T22:14:10+01:00*%
%TF.ProjectId,wiicam,77696963-616d-42e6-9b69-6361645f7063,rev?*%
%TF.SameCoordinates,Original*%
%TF.FileFunction,Copper,L2,Bot*%
%TF.FilePolarity,Positive*%
%FSLAX46Y46*%
G04 Gerber Fmt 4.6, Leading zero omitted, Abs format (unit mm)*
G04 Created by KiCad (PCBNEW (5.1.12)-1) date 2022-05-16 22:14:10*
%MOMM*%
%LPD*%
G01*
G04 APERTURE LIST*
%TA.AperFunction,ComponentPad*%
%ADD10O,1.700000X1.700000*%
%TD*%
%TA.AperFunction,ComponentPad*%
%ADD11R,1.700000X1.700000*%
%TD*%
%TA.AperFunction,SMDPad,CuDef*%
%ADD12R,1.800000X1.540000*%
%TD*%
%TA.AperFunction,ViaPad*%
%ADD13C,0.800000*%
%TD*%
%TA.AperFunction,Conductor*%
%ADD14C,0.400000*%
%TD*%
%TA.AperFunction,Conductor*%
%ADD15C,0.250000*%
%TD*%
%TA.AperFunction,Conductor*%
%ADD16C,0.254000*%
%TD*%
%TA.AperFunction,Conductor*%
%ADD17C,0.100000*%
%TD*%
G04 APERTURE END LIST*
%TA.AperFunction,SMDPad,CuDef*%
G36*
G01*
X155415000Y-125230000D02*
X154465000Y-125230000D01*
G75*
G02*
X154215000Y-124980000I0J250000D01*
G01*
X154215000Y-124305000D01*
G75*
G02*
X154465000Y-124055000I250000J0D01*
G01*
X155415000Y-124055000D01*
G75*
G02*
X155665000Y-124305000I0J-250000D01*
G01*
X155665000Y-124980000D01*
G75*
G02*
X155415000Y-125230000I-250000J0D01*
G01*
G37*
%TD.AperFunction*%
%TA.AperFunction,SMDPad,CuDef*%
G36*
G01*
X155415000Y-127305000D02*
X154465000Y-127305000D01*
G75*
G02*
X154215000Y-127055000I0J250000D01*
G01*
X154215000Y-126380000D01*
G75*
G02*
X154465000Y-126130000I250000J0D01*
G01*
X155415000Y-126130000D01*
G75*
G02*
X155665000Y-126380000I0J-250000D01*
G01*
X155665000Y-127055000D01*
G75*
G02*
X155415000Y-127305000I-250000J0D01*
G01*
G37*
%TD.AperFunction*%
%TA.AperFunction,SMDPad,CuDef*%
G36*
G01*
X151859000Y-125548500D02*
X150909000Y-125548500D01*
G75*
G02*
X150659000Y-125298500I0J250000D01*
G01*
X150659000Y-124623500D01*
G75*
G02*
X150909000Y-124373500I250000J0D01*
G01*
X151859000Y-124373500D01*
G75*
G02*
X152109000Y-124623500I0J-250000D01*
G01*
X152109000Y-125298500D01*
G75*
G02*
X151859000Y-125548500I-250000J0D01*
G01*
G37*
%TD.AperFunction*%
%TA.AperFunction,SMDPad,CuDef*%
G36*
G01*
X151859000Y-123473500D02*
X150909000Y-123473500D01*
G75*
G02*
X150659000Y-123223500I0J250000D01*
G01*
X150659000Y-122548500D01*
G75*
G02*
X150909000Y-122298500I250000J0D01*
G01*
X151859000Y-122298500D01*
G75*
G02*
X152109000Y-122548500I0J-250000D01*
G01*
X152109000Y-123223500D01*
G75*
G02*
X151859000Y-123473500I-250000J0D01*
G01*
G37*
%TD.AperFunction*%
D10*
X142875000Y-120600000D03*
X142875000Y-123140000D03*
X142875000Y-125680000D03*
D11*
X142875000Y-128220000D03*
D12*
X160150000Y-127020000D03*
X160150000Y-124340000D03*
X157350000Y-124340000D03*
X157350000Y-127020000D03*
D13*
X158750000Y-126950000D03*
X150495000Y-126950000D03*
X149860000Y-122505000D03*
X162560000Y-122210000D03*
X162560000Y-126260000D03*
X156845000Y-119965000D03*
D14*
X158820000Y-127020000D02*
X158750000Y-126950000D01*
X160150000Y-127020000D02*
X158820000Y-127020000D01*
X158680000Y-127020000D02*
X158750000Y-126950000D01*
X157350000Y-127020000D02*
X158680000Y-127020000D01*
X157047500Y-126717500D02*
X157350000Y-127020000D01*
X154940000Y-126717500D02*
X157047500Y-126717500D01*
X151384000Y-126061000D02*
X150495000Y-126950000D01*
X151384000Y-124961000D02*
X151384000Y-126061000D01*
X151384000Y-124961000D02*
X150411000Y-124961000D01*
X149860000Y-124410000D02*
X149860000Y-122505000D01*
X150411000Y-124961000D02*
X149860000Y-124410000D01*
D15*
X162560000Y-122210000D02*
X162560000Y-123775000D01*
X161995000Y-124340000D02*
X160150000Y-124340000D01*
X162560000Y-123775000D02*
X161995000Y-124340000D01*
D16*
X166980001Y-119700000D02*
X165132419Y-119700000D01*
X165100000Y-119696807D01*
X165067581Y-119700000D01*
X164970617Y-119709550D01*
X164846207Y-119747290D01*
X164731550Y-119808575D01*
X164631052Y-119891052D01*
X164548575Y-119991550D01*
X164487290Y-120106207D01*
X164449550Y-120230617D01*
X164436807Y-120360000D01*
X164440001Y-120392429D01*
X164440000Y-128427581D01*
X164436807Y-128460000D01*
X164449550Y-128589383D01*
X164487290Y-128713793D01*
X164548575Y-128828450D01*
X164631052Y-128928948D01*
X164731550Y-129011425D01*
X164846207Y-129072710D01*
X164970617Y-129110450D01*
X165100000Y-129123193D01*
X165132419Y-129120000D01*
X166980000Y-129120000D01*
X166980001Y-129465000D01*
X144222295Y-129465000D01*
X144255537Y-129424494D01*
X144314502Y-129314180D01*
X144350812Y-129194482D01*
X144363072Y-129070000D01*
X144363072Y-127370000D01*
X144350812Y-127245518D01*
X144314502Y-127125820D01*
X144255537Y-127015506D01*
X144176185Y-126918815D01*
X144079494Y-126839463D01*
X143969180Y-126780498D01*
X143896620Y-126758487D01*
X144028475Y-126626632D01*
X144190990Y-126383411D01*
X144302932Y-126113158D01*
X144360000Y-125826260D01*
X144360000Y-125533740D01*
X144302932Y-125246842D01*
X144190990Y-124976589D01*
X144028475Y-124733368D01*
X143821632Y-124526525D01*
X143647240Y-124410000D01*
X143821632Y-124293475D01*
X144028475Y-124086632D01*
X144190990Y-123843411D01*
X144302932Y-123573158D01*
X144360000Y-123286260D01*
X144360000Y-122993740D01*
X144302932Y-122706842D01*
X144190990Y-122436589D01*
X144168588Y-122403061D01*
X148825000Y-122403061D01*
X148825000Y-122606939D01*
X148864774Y-122806898D01*
X148942795Y-122995256D01*
X149025001Y-123118286D01*
X149025000Y-124368981D01*
X149020960Y-124410000D01*
X149025000Y-124451018D01*
X149037082Y-124573688D01*
X149084828Y-124731086D01*
X149162364Y-124876145D01*
X149266709Y-125003291D01*
X149298578Y-125029445D01*
X149791558Y-125522426D01*
X149817709Y-125554291D01*
X149944854Y-125658636D01*
X150089913Y-125736172D01*
X150150666Y-125754601D01*
X150170595Y-125791886D01*
X150281038Y-125926462D01*
X150291651Y-125935172D01*
X150193102Y-125954774D01*
X150004744Y-126032795D01*
X149835226Y-126146063D01*
X149691063Y-126290226D01*
X149577795Y-126459744D01*
X149499774Y-126648102D01*
X149460000Y-126848061D01*
X149460000Y-127051939D01*
X149499774Y-127251898D01*
X149577795Y-127440256D01*
X149691063Y-127609774D01*
X149835226Y-127753937D01*
X150004744Y-127867205D01*
X150193102Y-127945226D01*
X150393061Y-127985000D01*
X150596939Y-127985000D01*
X150796898Y-127945226D01*
X150985256Y-127867205D01*
X151154774Y-127753937D01*
X151298937Y-127609774D01*
X151412205Y-127440256D01*
X151490226Y-127251898D01*
X151519092Y-127106776D01*
X151945432Y-126680437D01*
X151977291Y-126654291D01*
X152081636Y-126527146D01*
X152159172Y-126382087D01*
X152206918Y-126224689D01*
X152218357Y-126108545D01*
X152352386Y-126036905D01*
X152486962Y-125926462D01*
X152597405Y-125791886D01*
X152679472Y-125638350D01*
X152730008Y-125471754D01*
X152747072Y-125298500D01*
X152747072Y-125230000D01*
X153576928Y-125230000D01*
X153589188Y-125354482D01*
X153625498Y-125474180D01*
X153684463Y-125584494D01*
X153763815Y-125681185D01*
X153843594Y-125746658D01*
X153837038Y-125752038D01*
X153726595Y-125886614D01*
X153644528Y-126040150D01*
X153593992Y-126206746D01*
X153576928Y-126380000D01*
X153576928Y-127055000D01*
X153593992Y-127228254D01*
X153644528Y-127394850D01*
X153726595Y-127548386D01*
X153837038Y-127682962D01*
X153971614Y-127793405D01*
X154125150Y-127875472D01*
X154291746Y-127926008D01*
X154465000Y-127943072D01*
X155415000Y-127943072D01*
X155588254Y-127926008D01*
X155754850Y-127875472D01*
X155817070Y-127842214D01*
X155824188Y-127914482D01*
X155860498Y-128034180D01*
X155919463Y-128144494D01*
X155998815Y-128241185D01*
X156095506Y-128320537D01*
X156205820Y-128379502D01*
X156325518Y-128415812D01*
X156450000Y-128428072D01*
X158250000Y-128428072D01*
X158374482Y-128415812D01*
X158494180Y-128379502D01*
X158604494Y-128320537D01*
X158701185Y-128241185D01*
X158750000Y-128181704D01*
X158798815Y-128241185D01*
X158895506Y-128320537D01*
X159005820Y-128379502D01*
X159125518Y-128415812D01*
X159250000Y-128428072D01*
X161050000Y-128428072D01*
X161174482Y-128415812D01*
X161294180Y-128379502D01*
X161404494Y-128320537D01*
X161501185Y-128241185D01*
X161580537Y-128144494D01*
X161639502Y-128034180D01*
X161675812Y-127914482D01*
X161688072Y-127790000D01*
X161688072Y-126250000D01*
X161675812Y-126125518D01*
X161639502Y-126005820D01*
X161580537Y-125895506D01*
X161501185Y-125798815D01*
X161404494Y-125719463D01*
X161330665Y-125680000D01*
X161404494Y-125640537D01*
X161501185Y-125561185D01*
X161580537Y-125464494D01*
X161639502Y-125354180D01*
X161675812Y-125234482D01*
X161688072Y-125110000D01*
X161688072Y-125100000D01*
X161957678Y-125100000D01*
X161995000Y-125103676D01*
X162032322Y-125100000D01*
X162032333Y-125100000D01*
X162143986Y-125089003D01*
X162287247Y-125045546D01*
X162419276Y-124974974D01*
X162535001Y-124880001D01*
X162558803Y-124850998D01*
X163071002Y-124338800D01*
X163100001Y-124315001D01*
X163194974Y-124199276D01*
X163265546Y-124067247D01*
X163309003Y-123923986D01*
X163320000Y-123812333D01*
X163320000Y-123812325D01*
X163323676Y-123775000D01*
X163320000Y-123737675D01*
X163320000Y-122913711D01*
X163363937Y-122869774D01*
X163477205Y-122700256D01*
X163555226Y-122511898D01*
X163595000Y-122311939D01*
X163595000Y-122108061D01*
X163555226Y-121908102D01*
X163477205Y-121719744D01*
X163363937Y-121550226D01*
X163219774Y-121406063D01*
X163050256Y-121292795D01*
X162861898Y-121214774D01*
X162661939Y-121175000D01*
X162458061Y-121175000D01*
X162258102Y-121214774D01*
X162069744Y-121292795D01*
X161900226Y-121406063D01*
X161756063Y-121550226D01*
X161642795Y-121719744D01*
X161564774Y-121908102D01*
X161525000Y-122108061D01*
X161525000Y-122311939D01*
X161564774Y-122511898D01*
X161642795Y-122700256D01*
X161756063Y-122869774D01*
X161800000Y-122913711D01*
X161800001Y-123460198D01*
X161688072Y-123572127D01*
X161688072Y-123570000D01*
X161675812Y-123445518D01*
X161639502Y-123325820D01*
X161580537Y-123215506D01*
X161501185Y-123118815D01*
X161404494Y-123039463D01*
X161294180Y-122980498D01*
X161174482Y-122944188D01*
X161050000Y-122931928D01*
X159250000Y-122931928D01*
X159125518Y-122944188D01*
X159005820Y-122980498D01*
X158895506Y-123039463D01*
X158798815Y-123118815D01*
X158750000Y-123178296D01*
X158701185Y-123118815D01*
X158604494Y-123039463D01*
X158494180Y-122980498D01*
X158374482Y-122944188D01*
X158250000Y-122931928D01*
X157635750Y-122935000D01*
X157477000Y-123093750D01*
X157477000Y-124213000D01*
X157497000Y-124213000D01*
X157497000Y-124467000D01*
X157477000Y-124467000D01*
X157477000Y-124487000D01*
X157223000Y-124487000D01*
X157223000Y-124467000D01*
X157203000Y-124467000D01*
X157203000Y-124213000D01*
X157223000Y-124213000D01*
X157223000Y-123093750D01*
X157064250Y-122935000D01*
X156450000Y-122931928D01*
X156325518Y-122944188D01*
X156205820Y-122980498D01*
X156095506Y-123039463D01*
X155998815Y-123118815D01*
X155919463Y-123215506D01*
X155860498Y-123325820D01*
X155825800Y-123440205D01*
X155789482Y-123429188D01*
X155665000Y-123416928D01*
X155225750Y-123420000D01*
X155067000Y-123578750D01*
X155067000Y-124515500D01*
X155087000Y-124515500D01*
X155087000Y-124769500D01*
X155067000Y-124769500D01*
X155067000Y-124789500D01*
X154813000Y-124789500D01*
X154813000Y-124769500D01*
X153738750Y-124769500D01*
X153580000Y-124928250D01*
X153576928Y-125230000D01*
X152747072Y-125230000D01*
X152747072Y-124623500D01*
X152730008Y-124450246D01*
X152679472Y-124283650D01*
X152597405Y-124130114D01*
X152535761Y-124055000D01*
X153576928Y-124055000D01*
X153580000Y-124356750D01*
X153738750Y-124515500D01*
X154813000Y-124515500D01*
X154813000Y-123578750D01*
X154654250Y-123420000D01*
X154215000Y-123416928D01*
X154090518Y-123429188D01*
X153970820Y-123465498D01*
X153860506Y-123524463D01*
X153763815Y-123603815D01*
X153684463Y-123700506D01*
X153625498Y-123810820D01*
X153589188Y-123930518D01*
X153576928Y-124055000D01*
X152535761Y-124055000D01*
X152486962Y-123995538D01*
X152480406Y-123990158D01*
X152560185Y-123924685D01*
X152639537Y-123827994D01*
X152698502Y-123717680D01*
X152734812Y-123597982D01*
X152747072Y-123473500D01*
X152744000Y-123171750D01*
X152585250Y-123013000D01*
X151511000Y-123013000D01*
X151511000Y-123033000D01*
X151257000Y-123033000D01*
X151257000Y-123013000D01*
X151237000Y-123013000D01*
X151237000Y-122759000D01*
X151257000Y-122759000D01*
X151257000Y-121822250D01*
X151511000Y-121822250D01*
X151511000Y-122759000D01*
X152585250Y-122759000D01*
X152744000Y-122600250D01*
X152747072Y-122298500D01*
X152734812Y-122174018D01*
X152698502Y-122054320D01*
X152639537Y-121944006D01*
X152560185Y-121847315D01*
X152463494Y-121767963D01*
X152353180Y-121708998D01*
X152233482Y-121672688D01*
X152109000Y-121660428D01*
X151669750Y-121663500D01*
X151511000Y-121822250D01*
X151257000Y-121822250D01*
X151098250Y-121663500D01*
X150659000Y-121660428D01*
X150534518Y-121672688D01*
X150495171Y-121684624D01*
X150350256Y-121587795D01*
X150161898Y-121509774D01*
X149961939Y-121470000D01*
X149758061Y-121470000D01*
X149558102Y-121509774D01*
X149369744Y-121587795D01*
X149200226Y-121701063D01*
X149056063Y-121845226D01*
X148942795Y-122014744D01*
X148864774Y-122203102D01*
X148825000Y-122403061D01*
X144168588Y-122403061D01*
X144028475Y-122193368D01*
X143821632Y-121986525D01*
X143639466Y-121864805D01*
X143756355Y-121795178D01*
X143972588Y-121600269D01*
X144146641Y-121366920D01*
X144271825Y-121104099D01*
X144316476Y-120956890D01*
X144195155Y-120727000D01*
X143002000Y-120727000D01*
X143002000Y-120747000D01*
X142748000Y-120747000D01*
X142748000Y-120727000D01*
X142728000Y-120727000D01*
X142728000Y-120473000D01*
X142748000Y-120473000D01*
X142748000Y-120453000D01*
X143002000Y-120453000D01*
X143002000Y-120473000D01*
X144195155Y-120473000D01*
X144316476Y-120243110D01*
X144271825Y-120095901D01*
X144146641Y-119833080D01*
X143972588Y-119599731D01*
X143756355Y-119404822D01*
X143672715Y-119355000D01*
X166980000Y-119355000D01*
X166980001Y-119700000D01*
%TA.AperFunction,Conductor*%
D17*
G36*
X166980001Y-119700000D02*
G01*
X165132419Y-119700000D01*
X165100000Y-119696807D01*
X165067581Y-119700000D01*
X164970617Y-119709550D01*
X164846207Y-119747290D01*
X164731550Y-119808575D01*
X164631052Y-119891052D01*
X164548575Y-119991550D01*
X164487290Y-120106207D01*
X164449550Y-120230617D01*
X164436807Y-120360000D01*
X164440001Y-120392429D01*
X164440000Y-128427581D01*
X164436807Y-128460000D01*
X164449550Y-128589383D01*
X164487290Y-128713793D01*
X164548575Y-128828450D01*
X164631052Y-128928948D01*
X164731550Y-129011425D01*
X164846207Y-129072710D01*
X164970617Y-129110450D01*
X165100000Y-129123193D01*
X165132419Y-129120000D01*
X166980000Y-129120000D01*
X166980001Y-129465000D01*
X144222295Y-129465000D01*
X144255537Y-129424494D01*
X144314502Y-129314180D01*
X144350812Y-129194482D01*
X144363072Y-129070000D01*
X144363072Y-127370000D01*
X144350812Y-127245518D01*
X144314502Y-127125820D01*
X144255537Y-127015506D01*
X144176185Y-126918815D01*
X144079494Y-126839463D01*
X143969180Y-126780498D01*
X143896620Y-126758487D01*
X144028475Y-126626632D01*
X144190990Y-126383411D01*
X144302932Y-126113158D01*
X144360000Y-125826260D01*
X144360000Y-125533740D01*
X144302932Y-125246842D01*
X144190990Y-124976589D01*
X144028475Y-124733368D01*
X143821632Y-124526525D01*
X143647240Y-124410000D01*
X143821632Y-124293475D01*
X144028475Y-124086632D01*
X144190990Y-123843411D01*
X144302932Y-123573158D01*
X144360000Y-123286260D01*
X144360000Y-122993740D01*
X144302932Y-122706842D01*
X144190990Y-122436589D01*
X144168588Y-122403061D01*
X148825000Y-122403061D01*
X148825000Y-122606939D01*
X148864774Y-122806898D01*
X148942795Y-122995256D01*
X149025001Y-123118286D01*
X149025000Y-124368981D01*
X149020960Y-124410000D01*
X149025000Y-124451018D01*
X149037082Y-124573688D01*
X149084828Y-124731086D01*
X149162364Y-124876145D01*
X149266709Y-125003291D01*
X149298578Y-125029445D01*
X149791558Y-125522426D01*
X149817709Y-125554291D01*
X149944854Y-125658636D01*
X150089913Y-125736172D01*
X150150666Y-125754601D01*
X150170595Y-125791886D01*
X150281038Y-125926462D01*
X150291651Y-125935172D01*
X150193102Y-125954774D01*
X150004744Y-126032795D01*
X149835226Y-126146063D01*
X149691063Y-126290226D01*
X149577795Y-126459744D01*
X149499774Y-126648102D01*
X149460000Y-126848061D01*
X149460000Y-127051939D01*
X149499774Y-127251898D01*
X149577795Y-127440256D01*
X149691063Y-127609774D01*
X149835226Y-127753937D01*
X150004744Y-127867205D01*
X150193102Y-127945226D01*
X150393061Y-127985000D01*
X150596939Y-127985000D01*
X150796898Y-127945226D01*
X150985256Y-127867205D01*
X151154774Y-127753937D01*
X151298937Y-127609774D01*
X151412205Y-127440256D01*
X151490226Y-127251898D01*
X151519092Y-127106776D01*
X151945432Y-126680437D01*
X151977291Y-126654291D01*
X152081636Y-126527146D01*
X152159172Y-126382087D01*
X152206918Y-126224689D01*
X152218357Y-126108545D01*
X152352386Y-126036905D01*
X152486962Y-125926462D01*
X152597405Y-125791886D01*
X152679472Y-125638350D01*
X152730008Y-125471754D01*
X152747072Y-125298500D01*
X152747072Y-125230000D01*
X153576928Y-125230000D01*
X153589188Y-125354482D01*
X153625498Y-125474180D01*
X153684463Y-125584494D01*
X153763815Y-125681185D01*
X153843594Y-125746658D01*
X153837038Y-125752038D01*
X153726595Y-125886614D01*
X153644528Y-126040150D01*
X153593992Y-126206746D01*
X153576928Y-126380000D01*
X153576928Y-127055000D01*
X153593992Y-127228254D01*
X153644528Y-127394850D01*
X153726595Y-127548386D01*
X153837038Y-127682962D01*
X153971614Y-127793405D01*
X154125150Y-127875472D01*
X154291746Y-127926008D01*
X154465000Y-127943072D01*
X155415000Y-127943072D01*
X155588254Y-127926008D01*
X155754850Y-127875472D01*
X155817070Y-127842214D01*
X155824188Y-127914482D01*
X155860498Y-128034180D01*
X155919463Y-128144494D01*
X155998815Y-128241185D01*
X156095506Y-128320537D01*
X156205820Y-128379502D01*
X156325518Y-128415812D01*
X156450000Y-128428072D01*
X158250000Y-128428072D01*
X158374482Y-128415812D01*
X158494180Y-128379502D01*
X158604494Y-128320537D01*
X158701185Y-128241185D01*
X158750000Y-128181704D01*
X158798815Y-128241185D01*
X158895506Y-128320537D01*
X159005820Y-128379502D01*
X159125518Y-128415812D01*
X159250000Y-128428072D01*
X161050000Y-128428072D01*
X161174482Y-128415812D01*
X161294180Y-128379502D01*
X161404494Y-128320537D01*
X161501185Y-128241185D01*
X161580537Y-128144494D01*
X161639502Y-128034180D01*
X161675812Y-127914482D01*
X161688072Y-127790000D01*
X161688072Y-126250000D01*
X161675812Y-126125518D01*
X161639502Y-126005820D01*
X161580537Y-125895506D01*
X161501185Y-125798815D01*
X161404494Y-125719463D01*
X161330665Y-125680000D01*
X161404494Y-125640537D01*
X161501185Y-125561185D01*
X161580537Y-125464494D01*
X161639502Y-125354180D01*
X161675812Y-125234482D01*
X161688072Y-125110000D01*
X161688072Y-125100000D01*
X161957678Y-125100000D01*
X161995000Y-125103676D01*
X162032322Y-125100000D01*
X162032333Y-125100000D01*
X162143986Y-125089003D01*
X162287247Y-125045546D01*
X162419276Y-124974974D01*
X162535001Y-124880001D01*
X162558803Y-124850998D01*
X163071002Y-124338800D01*
X163100001Y-124315001D01*
X163194974Y-124199276D01*
X163265546Y-124067247D01*
X163309003Y-123923986D01*
X163320000Y-123812333D01*
X163320000Y-123812325D01*
X163323676Y-123775000D01*
X163320000Y-123737675D01*
X163320000Y-122913711D01*
X163363937Y-122869774D01*
X163477205Y-122700256D01*
X163555226Y-122511898D01*
X163595000Y-122311939D01*
X163595000Y-122108061D01*
X163555226Y-121908102D01*
X163477205Y-121719744D01*
X163363937Y-121550226D01*
X163219774Y-121406063D01*
X163050256Y-121292795D01*
X162861898Y-121214774D01*
X162661939Y-121175000D01*
X162458061Y-121175000D01*
X162258102Y-121214774D01*
X162069744Y-121292795D01*
X161900226Y-121406063D01*
X161756063Y-121550226D01*
X161642795Y-121719744D01*
X161564774Y-121908102D01*
X161525000Y-122108061D01*
X161525000Y-122311939D01*
X161564774Y-122511898D01*
X161642795Y-122700256D01*
X161756063Y-122869774D01*
X161800000Y-122913711D01*
X161800001Y-123460198D01*
X161688072Y-123572127D01*
X161688072Y-123570000D01*
X161675812Y-123445518D01*
X161639502Y-123325820D01*
X161580537Y-123215506D01*
X161501185Y-123118815D01*
X161404494Y-123039463D01*
X161294180Y-122980498D01*
X161174482Y-122944188D01*
X161050000Y-122931928D01*
X159250000Y-122931928D01*
X159125518Y-122944188D01*
X159005820Y-122980498D01*
X158895506Y-123039463D01*
X158798815Y-123118815D01*
X158750000Y-123178296D01*
X158701185Y-123118815D01*
X158604494Y-123039463D01*
X158494180Y-122980498D01*
X158374482Y-122944188D01*
X158250000Y-122931928D01*
X157635750Y-122935000D01*
X157477000Y-123093750D01*
X157477000Y-124213000D01*
X157497000Y-124213000D01*
X157497000Y-124467000D01*
X157477000Y-124467000D01*
X157477000Y-124487000D01*
X157223000Y-124487000D01*
X157223000Y-124467000D01*
X157203000Y-124467000D01*
X157203000Y-124213000D01*
X157223000Y-124213000D01*
X157223000Y-123093750D01*
X157064250Y-122935000D01*
X156450000Y-122931928D01*
X156325518Y-122944188D01*
X156205820Y-122980498D01*
X156095506Y-123039463D01*
X155998815Y-123118815D01*
X155919463Y-123215506D01*
X155860498Y-123325820D01*
X155825800Y-123440205D01*
X155789482Y-123429188D01*
X155665000Y-123416928D01*
X155225750Y-123420000D01*
X155067000Y-123578750D01*
X155067000Y-124515500D01*
X155087000Y-124515500D01*
X155087000Y-124769500D01*
X155067000Y-124769500D01*
X155067000Y-124789500D01*
X154813000Y-124789500D01*
X154813000Y-124769500D01*
X153738750Y-124769500D01*
X153580000Y-124928250D01*
X153576928Y-125230000D01*
X152747072Y-125230000D01*
X152747072Y-124623500D01*
X152730008Y-124450246D01*
X152679472Y-124283650D01*
X152597405Y-124130114D01*
X152535761Y-124055000D01*
X153576928Y-124055000D01*
X153580000Y-124356750D01*
X153738750Y-124515500D01*
X154813000Y-124515500D01*
X154813000Y-123578750D01*
X154654250Y-123420000D01*
X154215000Y-123416928D01*
X154090518Y-123429188D01*
X153970820Y-123465498D01*
X153860506Y-123524463D01*
X153763815Y-123603815D01*
X153684463Y-123700506D01*
X153625498Y-123810820D01*
X153589188Y-123930518D01*
X153576928Y-124055000D01*
X152535761Y-124055000D01*
X152486962Y-123995538D01*
X152480406Y-123990158D01*
X152560185Y-123924685D01*
X152639537Y-123827994D01*
X152698502Y-123717680D01*
X152734812Y-123597982D01*
X152747072Y-123473500D01*
X152744000Y-123171750D01*
X152585250Y-123013000D01*
X151511000Y-123013000D01*
X151511000Y-123033000D01*
X151257000Y-123033000D01*
X151257000Y-123013000D01*
X151237000Y-123013000D01*
X151237000Y-122759000D01*
X151257000Y-122759000D01*
X151257000Y-121822250D01*
X151511000Y-121822250D01*
X151511000Y-122759000D01*
X152585250Y-122759000D01*
X152744000Y-122600250D01*
X152747072Y-122298500D01*
X152734812Y-122174018D01*
X152698502Y-122054320D01*
X152639537Y-121944006D01*
X152560185Y-121847315D01*
X152463494Y-121767963D01*
X152353180Y-121708998D01*
X152233482Y-121672688D01*
X152109000Y-121660428D01*
X151669750Y-121663500D01*
X151511000Y-121822250D01*
X151257000Y-121822250D01*
X151098250Y-121663500D01*
X150659000Y-121660428D01*
X150534518Y-121672688D01*
X150495171Y-121684624D01*
X150350256Y-121587795D01*
X150161898Y-121509774D01*
X149961939Y-121470000D01*
X149758061Y-121470000D01*
X149558102Y-121509774D01*
X149369744Y-121587795D01*
X149200226Y-121701063D01*
X149056063Y-121845226D01*
X148942795Y-122014744D01*
X148864774Y-122203102D01*
X148825000Y-122403061D01*
X144168588Y-122403061D01*
X144028475Y-122193368D01*
X143821632Y-121986525D01*
X143639466Y-121864805D01*
X143756355Y-121795178D01*
X143972588Y-121600269D01*
X144146641Y-121366920D01*
X144271825Y-121104099D01*
X144316476Y-120956890D01*
X144195155Y-120727000D01*
X143002000Y-120727000D01*
X143002000Y-120747000D01*
X142748000Y-120747000D01*
X142748000Y-120727000D01*
X142728000Y-120727000D01*
X142728000Y-120473000D01*
X142748000Y-120473000D01*
X142748000Y-120453000D01*
X143002000Y-120453000D01*
X143002000Y-120473000D01*
X144195155Y-120473000D01*
X144316476Y-120243110D01*
X144271825Y-120095901D01*
X144146641Y-119833080D01*
X143972588Y-119599731D01*
X143756355Y-119404822D01*
X143672715Y-119355000D01*
X166980000Y-119355000D01*
X166980001Y-119700000D01*
G37*
%TD.AperFunction*%
M02*
